/* XPM */
static char *_523a5b0d31349e3c75bc0ee558b61a3r7hF7El6li9O5u7f[] = {
/* columns rows colors chars-per-pixel */
"64 64 179 2 ",
"   c #7A4B46",
".  c #7C5747",
"X  c #7F5A4A",
"o  c #7E6A45",
"O  c #8D4848",
"+  c #994C4D",
"@  c #8B5751",
"#  c #935B56",
"$  c #9C5459",
"%  c #AB5658",
"&  c #826F46",
"*  c #85724B",
"=  c #89754D",
"-  c #8D794E",
";  c #907C4D",
":  c #877151",
">  c #8B7651",
",  c #8D7951",
"<  c #937D53",
"1  c #927D5D",
"2  c #B25E61",
"3  c #997172",
"4  c #A66565",
"5  c #BC6464",
"6  c #B06D6B",
"7  c #D76D6D",
"8  c #D77272",
"9  c #E77A79",
"0  c #F47F7F",
"q  c #7F8E7C",
"w  c #968054",
"e  c #9B8456",
"r  c #95815C",
"t  c #9B865A",
"y  c #A3844D",
"u  c #A18553",
"i  c #A28B5B",
"p  c #A7905E",
"a  c #AB925E",
"s  c #9C8865",
"d  c #9D8B6A",
"f  c #A18E63",
"g  c #A88F6E",
"h  c #A79162",
"j  c #AC9564",
"k  c #AE9865",
"l  c #B39B66",
"z  c #B49B68",
"x  c #B59D69",
"c  c #A59273",
"v  c #A89779",
"b  c #B7A06B",
"n  c #F5817F",
"m  c #7F8C91",
"M  c #7C9AA3",
"N  c #79A9B7",
"B  c #76ACBB",
"V  c #75B1C3",
"C  c #7AB1C1",
"Z  c #76BACE",
"A  c #77BFD4",
"S  c #63C3DF",
"D  c #6AC5DF",
"F  c #75C2D6",
"G  c #75C6DD",
"H  c #66C6E2",
"J  c #6BC7E1",
"K  c #6EC9E3",
"L  c #6ECEE9",
"P  c #74CBE4",
"I  c #7CCDE4",
"U  c #72CEE9",
"Y  c #79CFE8",
"T  c #73D0EB",
"R  c #7BD1EB",
"E  c #848585",
"W  c #8A8685",
"Q  c #898887",
"!  c #848B8D",
"~  c #8B8B8B",
"^  c #928C8B",
"/  c #8B9496",
"(  c #9A9695",
")  c #999999",
"_  c #AA8C8C",
"`  c #BD8C8A",
"'  c #AD9D83",
"]  c #A38F92",
"[  c #BE9593",
"{  c #B7A58A",
"}  c #A4A09F",
"|  c #BCAB96",
" . c #BCAF99",
".. c #BDB19B",
"X. c #8FA1A6",
"o. c #9CA8AB",
"O. c #AAA9AA",
"+. c #B4A9AA",
"@. c #BDB5A3",
"#. c #B4B4B4",
"$. c #BBBBBB",
"%. c #F78181",
"&. c #FB8382",
"*. c #C3B49D",
"=. c #C7BBA8",
"-. c #C5C0B0",
";. c #CCC3B2",
":. c #D1C2BE",
">. c #D4CBBC",
",. c #83B6C5",
"<. c #81BED0",
"1. c #A7BFC6",
"2. c #9EC3CE",
"3. c #86C4D6",
"4. c #97CCDE",
"5. c #BDD4DB",
"6. c #80CFE6",
"7. c #84D1E7",
"8. c #8BD1E4",
"9. c #82D4EC",
"0. c #8BD4EA",
"q. c #91D4E7",
"w. c #93D6E9",
"e. c #96DAED",
"r. c #9ADAED",
"t. c #83D9F2",
"y. c #9ADDF2",
"u. c #A4DAE9",
"i. c #ACDFEE",
"p. c #B5DAE7",
"a. c #B8DBE5",
"s. c #ACE0EF",
"d. c #B5E2EF",
"f. c #A4E1F3",
"g. c #ACE5F5",
"h. c #B5E6F5",
"j. c #BBE6F3",
"k. c #BCE9F5",
"l. c gray77",
"z. c #C9C6C6",
"x. c #CDCDCD",
"c. c #D5CCCD",
"v. c #D8D2C4",
"b. c #D7D4C9",
"n. c #C7CED0",
"m. c #D4D4D4",
"M. c #DDD7D6",
"N. c #D9DBD6",
"B. c #E1DCD7",
"V. c #DBE0DD",
"C. c #E4E2DA",
"Z. c #C7DEE5",
"A. c #CDE2E6",
"S. c #C4E7EF",
"D. c #CDE9EE",
"F. c #D5E5E6",
"G. c #DCE3E2",
"H. c #C4E9F4",
"J. c #CAEBF4",
"K. c #D4EEF6",
"L. c #CDF0FA",
"P. c #D4F0F7",
"I. c #D5F2FA",
"U. c #DCF4FC",
"Y. c #E2E2E2",
"T. c #EBE8E4",
"R. c #E7E8E8",
"E. c #EDEBEB",
"W. c #F4EAE7",
"Q. c #F0ECE9",
"!. c #F5F2ED",
"~. c #E7EEF0",
"^. c #F4F4F4",
"/. c #FAF7F6",
"(. c #F9F8F5",
"). c #F6FAFB",
"_. c #FCFDFD",
"`. c #FDFEFD",
"'. c #FEFEFE",
/* pixels */
"P P P P P K P P P P P K P P P K J P P K H H._._._._.M.a.K P P P P P P P P P P P P P P P P P Y P P P P P P P P Y P P P P P Y P P ",
"P K K K P P K K K K P K K P K K P J P A i._._._._._./.H.J P P P P P P P P P P Y T P P P Y P P P P P P P P P P P P P P P P P P P ",
"P P K P P P K P P P K P P P P P P P J w._._._._._._._.J.J P P P P P P P P P P P P P P P P P P P P P P Y P P P P P P P P Y P P P ",
"P P P P P K P P P P P P P P P G P P P j._._.N.R.R._._.H.J P P P P R P P P P P P P P P P P P P P P P P P P Y P P P P Y P P P P P ",
"P P P P P P P P J P P P K P P J P P P D j.z.W l.W._._.J.J P P G P P P P P P P P P P P P P P P P P P P Y P P P P P P P P P P P P ",
"P P P P P U P P P P P P P P P P P P P P L V ~ n.I.H.K.i.P P P P P P P P Y P P P P P Y P P P P Y P P P P P P P P P P P P P P P P ",
"P P P P P P P P P P P P P P P P P P P P P L 3.D.H J J K P P P P I P P P P Y P P P P P Y P P P P P P P P P P P P P Y Y P P P Y P ",
"P P P P P P P P P P P P G P K P P P P P P D I.U.K R P P P P P P P P P P P P P P P P P P P P P P Y P P P P P P Y P P P P P P P P ",
"P P I P P P P P P P P P P P J P P P P P K k.W.5.P P P P P P P P P P P P P Y P P P P P P P P P P P P P P P P Y P P P Y P P P P P ",
"I P P P P P P P P P P P G P P P P P G U C c.c.Z.K P P P P P P P P P Y P P P P P P P Y P P Y P P Y P P P P P P P P P P P P P P P ",
"P P P P P P P P P P P P P P P P P P U Z Q #.E.U.D P P P P P P P P P P P P P P P P P P P P P P P P P K P P P P P P Y K P Y P Y K ",
"P P P P P P J P P P P P P P P P P P F ! #.Y._.K.P P P P P P P P P P P P P P P Y P P P P P P P P P P Y P P P P P P P P P P P P P ",
"P P P P P P P P P P P P P P P P G U B ^ l.B._.P.J P P P P P P P P Y P P P P P P P P P Y P P P P P P P P Y P P P P P P P P P P P ",
"P P P P P P P P P G P P J P P P P P U V ~ $.T.P.J P P P P P P P P P P P P P P P Y P P P P P P Y P P Y P P P P P P P P Y P P P P ",
"P Y P P P P P P J P P P P J P G P P T N ) x._.P.J K P P P P P P P P P Y P P P P P P P P P P P P P P P P P P P P P P P P P P P Y ",
"P P P P P P P P P P P P P P P P P U C ^ z.E.).K.7.0.8.6.P P P P P P P P P Y P P P P P P P P P P P P P P P P P P Y P P P P P P P ",
"P P P P P P P P P K P G P P P G U Z Q 1.W.r.P 6.6.6.6.Y P P P P P P P P P P P P P P P P P P P P P P P P Y P P P P P P P P P P P ",
"P P P P P P P P P P P P K P P P G ! +.Y./.w.J P J P P K P P G P P P P P P Y P P P I T P P P P P P Y P P P P P P P P P P Y P P P ",
"P P P P P P P P P P P P P P P G m } c./._.w.J P P P P P P P P P P Y P Y P P P P P P P P Y P P P P Y P P P P P P P P P P P P P P ",
"P P P P P P P P P K G P P P K 6.o.] 1.c./.w.K P P P P P P P P P P P P P P P P P P P P P P P P P P P P P P P P P P Y P P P P P P ",
"P P P P P P P P P P P P P P P K t./ ( x.^.w.J P P P P Y Y P P P P P P P P P P P P P P P T I P P P P P P P P P Y P P P P P Y P P ",
"P P P P P P P P P K P P K P K U V / l.E._.w.K P P P P P P P P P P P Y P P P P Y P P P P P P P P P P P P P P P P Y P P P P P P P ",
"P P P P K K P P P G P P P P P A ! $.R._._.r.J P P P P P P P P P P P P P P P P P P P P Y P P P P P P Y P Y P P P P P P P P P P P ",
"P P P P P P P P P P P P P K 6.m } m.^._._.w.J P P P P P P P P P P P P P P Y P P P P P P P P P P P P P P P P P P P P P P Y P P P ",
"P P P P K P K P P P P P P P 6.1.^ O.x.^._.e.J P P P P P P P P P P P P P P P P P P P P P P P P Y P P P P P P P P P P P Y P P P P ",
"P G P P P P P P G P K P P K J 7./ } m.^._.w.J P P P P P P P P P P Y P Y P P P T P P I P P P P P P P P P P P P P P P P P P P P P ",
"K P P P P P P P P P P P P K R X.W z.^._._.w.K P P P P P P P P P P P P P P P P P P P P P P P P P P I P P P P P P P P P P P P P P ",
"P P P P P P G P P G P P P P P <./ Y._._._.w.K P P P P Y P P P P P P P P P P P P P P P P P P P P P P P P P P P P P P P P P P Y P ",
"P P G P P P P K P P K K P P P U ,.B._._._.e.J P P P P P P P P P P P P P P P P P P P P P P P P P P P P P P P P K P P P P P P P P ",
"P P P P K P P P P K P P P P P G E +.^._._.w.K P P P P P P P P P P P P P P P P P P P P P P P P P P P P P P K P P P P P P P P P P ",
"P P P P P P P P P G P P G P P P B $._._._.w.K P P P P P P P P P P P P P P P P P P P K P P P P P P P P P P P P P P P P P P P P P ",
"P P P P P P G P P P P P P P P P H 1._._._.w.J P P P P P P P P P P P P P P P P P P G P P P P G K P P P P P P P P P P P P P P P P ",
"P P P P P G P P P P P P P P P U M ( Y._.).w.K P G L G P P P P P P P P P G P P P P P P P P P P P P P P P K P P P P G K G P P P P ",
"P P P P P P P P P P P P P P P k.O.! !.w.P P P P P P P P P G P P G D P P P P P P P P G P P P P P P G P P P P P P P K P P P P P P ",
"P P P P P P P P G P P P P D s._.O.x._.q.K P P G P P P P P P P P P P P P P P P P P P P P P G P P P P P P G P P P P P P P P P P P ",
"P P P P P P P P P P P P P J s._.$.x._.0.S G P P P P P P P P P P P P P P P P P P P P P P P P P P P P J P P P P P P P P P P K P P ",
"P P P P P P P P P P P P K H s._.N.Y._.h.w.Y J D D D D D D D D J D D D D D D K D P K D K J K K P D P P P P P P P P P P P P P K P ",
"P P P P Y P P P P P P P q.w.p.E.B.c.:.*.!.u.8.y.y.r.y.y.r.y.y.y.e.e.r.r.8.q.e.e.q.q.q.q.w.q.0.w.8.P P P P P P P G P P P G P P P ",
"P Y P P P P P P P P J I _._.3 6 2 5   . d s v >.-.' ;.Q.M.>.;...(.T.C.V._._.!.(._._._._._._._._.8.J P P P P P P P P P P P D P P ",
"P P P P P P P P P P P P _._ + 0 0 &.8 @ X * ; e e e w f t e u = c s f * @.' v f N.-.@...c b.b.C.g.L P P P P P P P P P P P P P P ",
"P P P P P P P P P P G 9.+.O 0 %.0 0 %.9 $ @ : r x b l k l l x l a j l a t i a w t e i i e r t r *./ U L G P P P P P P P P P P K ",
"P P P P P P P P P P J 9.[ 7 %.0 0 0 0 %.0 2 @ * p l l l l l l l b b l b b x x x b l a b x k l i p < q J P P P P P P P P G K P P ",
"P P P P P P P Y P P J t.#.5 %.0 0 0 %.0 n n @ t x l l b l l l l j h b a e l j , f l - r x h > h p j y 1 F J P P P P P P P P J P ",
"P P Y P P P P P P P P 9.c.5 &.0 0 0 0 0 n 9 # w k l p t x p ; k k , t k , < k < : e - & = * o & * r c g !.f.P P P P P P P J P K ",
"P P P P P P P P P P G P 2.# 2 %.0 0 0 0 n 9 @ o t b j = t l , = p = & - * o & > > 1 f v { | =.>.b.V.F.D.K.d.P P P P P P J J P J ",
"Y P P P P P P U P P P J L 4.3 + 9 &.&.&.n $ @ : w w - & o * o , , s c v | *.;.v.m.G.A.D.k.h.f.r.t.R P P D D P P J P P P P P P P ",
"P P P P P G P P P P P K P K 0.] O 8 7 7 %   * , r d v { ..-.v.b.G.A.D.k.h.f.y.0.9.Y K D H J D P P D P P P P J P P P K P K P P G ",
"P P P P P P P P P P P P P P K t.O.4 ` [ | >.b.N.F.A.S.k.g.y.e.R R K K J J D D K P P P P P P P P P P P P P P P P P P K K P P K G ",
"P P P Y P P P P P P G K P P P D Y d.K.P.I.U.k.Y P P D D D D D P P P G P P P P P P K P P P K P P P G 7.Y P P P D P P K P P K P G ",
"P P P U P P P P U G P P P P P P K K D D D P D K P P P P P P P P P P P L P P P G P P P G P P P P P P P P P P P P P P G P P P P P ",
"P P P P P P P P P P P P G P P P P P G P P P P P P P P L P P P P P G G P P P P P P P P P P P P G P P P P P P P P P P P P P P P P ",
"P P P P P P P P P P P P P P P P P P P P P P P P G P P P P G P P G L P P P P P P G P L G P P P P P P P P P P P P P P P P P P P P ",
"P P G K P P P P G P P P P P P P P P P P P P P P P P P P P D P P P P P P P P P P U P P P P P P P P P P P P P P P P P P P P P P P ",
"P G P P P P P P P P P P P K P P P P K P P P P P P P P L P P P P P P P P P P P P P P U G P P P P P P P P P P P P P P P P P P P P ",
"P K P P P P P K P P P P G P P P P P P P P P P P P P P G P P P P P P P P P P P P P P P P P P P P P P P P P Y P P P P P P P P P P ",
"P P P K P P P G P P K P P P P P P P P P P P P P P P P P P P P P P P P P P P P P P P P P P P Y P P P P P P P P P P P P P P P P P ",
"K P K P P P P P P P P P P P P P P P P P P Y P P P P P P P P P P P P P P Y P P P P P Y P P P P P P P P P P P P P P P P P P P P P ",
"P P P K P P P P P P P P P P P P P P P P P P Y P P Y P P P P P P P P P P P P P P P P P P P P P P P Y P P P P P P P P P P P P Y P ",
"K P K P P P P P P P P P Y U P P P P P P P P P P P P P P Y P P P P P P P P P P P P P P Y P Y P P P P P P P Y P P P P P R P P P P ",
"K P P K P P P L P P P P P P P P P Y P P P P P P P P P P P P P Y U P P P P P Y P P P P P P P P P P P P P P P P P P P P P P P P P ",
"K P K P P P P P P P Y P P P P P T Y P P P P P P P P P Y P P P P Y P P P P P P Y P P P P Y P P P P P Y P P Y P U P P Y P P P P P ",
"K P P K P P P P P P P P P P P P P P P P P P P P P P P P P P P P P P P P P P P P P P P P P P P P P P P P P P P P P P P P Y P P P ",
"P P P K P P P P P P P P P P P P P P P P P Y P P P P P P P P P P P P P P P P P P Y P P P P P P P P P P P P P P P P P P P P P P P ",
"K P P P P P P P P P P P P P P Y P P P P P P Y P P P P P P Y P P P P P P Y P P P P P P P P P P P Y P P P P P P Y P P P P P Y P P "
};