/* XPM */
static char *Iconarchive_Childrens_Book_Animals_Dolphin_512__1_1693408046[] = {
/* columns rows colors chars-per-pixel */
"64 64 209 2 ",
"   c None",
".  c #1D414F",
"X  c #386E7F",
"o  c #0A7182",
"O  c #127384",
"+  c #127789",
"@  c #17798B",
"#  c #137C8E",
"$  c #0F7D91",
"%  c #117E92",
"&  c #247A8B",
"*  c #307C8B",
"=  c #287F94",
"-  c #138093",
";  c #178195",
":  c #148497",
">  c #1B8196",
",  c #198396",
"<  c #1D8499",
"1  c #1F8599",
"2  c #1F889A",
"3  c #1F8B9E",
"4  c #218698",
"5  c #27879B",
"6  c #2F8298",
"7  c #2B8499",
"8  c #28879A",
"9  c #21889C",
"0  c #23889C",
"q  c #2C8B9D",
"w  c #2C899E",
"e  c #33859A",
"r  c #388598",
"t  c #32889C",
"y  c #36889C",
"u  c #37889E",
"i  c #358B9E",
"p  c #308C9F",
"a  c #388A9B",
"s  c #3E8A9D",
"d  c #3A8D9E",
"f  c #218CA1",
"g  c #2A8DA1",
"h  c #2B8FA4",
"j  c #318EA1",
"k  c #308EA2",
"l  c #368EA3",
"z  c #3D8BA2",
"x  c #388CA0",
"c  c #398EA2",
"v  c #3F8CA2",
"b  c #3291A7",
"n  c #3F90A3",
"m  c #3890A4",
"M  c #3B90A6",
"N  c #3D93A5",
"B  c #3693AB",
"V  c #3695AA",
"C  c #3A97AD",
"Z  c #3E97AE",
"A  c #448D9C",
"S  c #448D9F",
"D  c #4B8D9E",
"F  c #598D9C",
"G  c #408EA4",
"H  c #458FA6",
"J  c #4191A6",
"K  c #4D93A5",
"L  c #4F94A5",
"P  c #4790A8",
"I  c #4894A9",
"U  c #4B94AA",
"Y  c #4B95AC",
"T  c #4E97AD",
"R  c #4598AD",
"E  c #5397A8",
"W  c #5199AD",
"Q  c #5098AF",
"!  c #5499AD",
"~  c #569AAF",
"^  c #569CAD",
"/  c #5E9DAD",
"(  c #4499B1",
")  c #479CB2",
"_  c #4C9FB5",
"`  c #519BB1",
"'  c #539AB0",
"]  c #539BB1",
"[  c #549CB2",
"{  c #559EB3",
"}  c #529FB5",
"|  c #599CB1",
" . c #5F9FB0",
".. c #5C9FB3",
"X. c #609DAD",
"o. c #58A1B6",
"O. c #5BA3B7",
"+. c #5EA1B5",
"@. c #54A2B9",
"#. c #59A3B8",
"$. c #5AA5BA",
"%. c #5FA5B9",
"&. c #5DA8BC",
"*. c #63A3B5",
"=. c #61A3B7",
"-. c #62A6B6",
";. c #67A4B7",
":. c #64A5B9",
">. c #67A6BA",
",. c #60A8BB",
"<. c #61AABD",
"1. c #63AABD",
"2. c #65A8BC",
"3. c #67ABBE",
"4. c #64ACBF",
"5. c #6CAABB",
"6. c #69A8BC",
"7. c #68A9BD",
"8. c #6BAABD",
"9. c #6EACBE",
"0. c #6FAEBF",
"q. c #72ABBB",
"w. c #7BAEBF",
"e. c #67AFC2",
"r. c #69ADC0",
"t. c #6BAEC2",
"y. c #70AFC1",
"u. c #69B1C3",
"i. c #6BB2C5",
"p. c #6CB0C4",
"a. c #6EB2C5",
"s. c #6FB3C6",
"d. c #6CB4C6",
"f. c #6FB6C8",
"g. c #74B1C3",
"h. c #78B0C1",
"j. c #79B4C4",
"k. c #7DB6C6",
"l. c #72B5C8",
"z. c #75B7C9",
"x. c #7FB6C9",
"c. c #74B9CB",
"v. c #76BBCC",
"b. c #7FB9CA",
"n. c #79BDCE",
"m. c #79C0CF",
"M. c #7BC1D0",
"N. c #7CC3D2",
"B. c #81B1C1",
"V. c #8AB0C0",
"C. c #84B8C8",
"Z. c #83BECE",
"A. c #8ABBCB",
"S. c #8BBFCE",
"D. c #9EBBC9",
"F. c #8BBED3",
"G. c #ACBBC7",
"H. c #BBBAC5",
"J. c #D2BDC6",
"K. c #E8BFC8",
"L. c #93C0CD",
"P. c #83C5D4",
"I. c #87C7D5",
"U. c #8FC3D2",
"Y. c #94C2D3",
"T. c #9BC4D2",
"R. c #93CBD8",
"E. c #9CCEDA",
"W. c #A4C9D7",
"Q. c #ACCEDC",
"!. c #A1D0DD",
"~. c #B6D5DE",
"^. c #ABCDE0",
"/. c #AACEE3",
"(. c #A7D6E1",
"). c #AFDAE5",
"_. c #B5D1E3",
"`. c #B2D0E6",
"'. c #B3D0E6",
"]. c #B3D1E6",
"[. c #B2D1E7",
"{. c #B7D2E6",
"}. c #B6D3E7",
"|. c #BAD5E6",
" X c #BCD5E6",
".X c #B9D5E9",
"XX c #BAD5E8",
"oX c #B7DEE8",
"OX c #D9D1DA",
"+X c #F4C4CE",
"@X c #FBC1CB",
"#X c #E5C9D1",
"$X c #E9D2DA",
"%X c #C2D9E7",
"&X c #C7DCEA",
"*X c #C9DEE8",
"=X c #CCDFEB",
"-X c #E6DFE7",
";X c #D0E2EE",
":X c #D5E5EF",
">X c #DAE8F2",
",X c #DFEBF3",
"<X c #E5E8EF",
"1X c #E3EFF5",
"2X c #E7F1F7",
"3X c #EAF3F8",
"4X c #EFF6FA",
"5X c #F3F8FB",
"6X c #F8FBFC",
/* pixels */
"                                                                                                                                ",
"                                                                                                                                ",
"                                                                                                                                ",
"                                                                                                                                ",
"                                                                                                                                ",
"                                                                                                                                ",
"                                                                                                                                ",
"                                                                                                                                ",
"                                                                                                                                ",
"                                                                                                                                ",
"                                                                                                                                ",
"                                                                                                                                ",
"                                                                                                                                ",
"                                                                                                                                ",
"                                  ,                                                                                             ",
"                        c B Z Z Z Z V h f 9 , -                                                                                 ",
"                  k C ) _ @.&.u.z.n.a.$._ Z V h 9 < -                                                                           ",
"                C _ @.o.4.Z.!.oXoX).E.v.a.u.&.@.) V h f :                                                                       ",
"            q ( o.$.6.P.R.(.).(.!.R.P.m.c.c.v.c.f.u.$.) V f :                                                                   ",
"          q ( @.1.l.E.(.E.E.R.P.m.v.l.a.a.c.c.v.n.v.c.i.&._ V 9 ,       j c n j m m m j 4                                       ",
"          ( } $.l.!.!.R.I.m.n.v.c.f.a.i.d.i.d.f.c.v.N.N.n.f.$.Z h 4 j J I U Y I I I H G G q                                     ",
"        C <.#.r.Z.R.I.N.m.m.m.v.c.f.i.u.u.u.u.i.d.f.v.N.P.I.m.4.Y l j J P H G G z c u 7 < #                                     ",
"      q ( $.#.p.v.v.n.m.N.m.m.v.c.p.u.u.u.u.e.3.u.g.f.f.v.N.I.m.p.` l x J G G z G x 8 -                                         ",
"      m R ] $.r.a.v.m.N.P.m.n.v.l.p.u.r.3.r.3.3.4.r.p.p.i.f.v.m.M.p.Q x x z d t e > ,                                           ",
"      V R @.%.r.l.n.m.N.m.m.v.l.a.p.3.3.r.2.2.<.<.2.<.r.r.t.p.l.n.N.u.Y d i t 7 , %                                             ",
"    9 Z R o.<.p.v.m.m.m.n.c.l.p.p.3.3.3.2.<.e.&.,.,.=.,.&.e.r.t.p.N.m.<.I c t 7 % #                                             ",
"    b Z ) $.4.l.v.v.n.v.v.g.g.q.q.3.7.2.2.2.,.,.$.+.$.#.+.%.%.r.4.p.N.n.o.J t 7 %                                               ",
"    b R ] =.4.p.l.v.l.g.g.6.q.F X.5.2.2.:.=.#.#.o.o.o.{ #.o.#.&.2.4.c.m.g.[ c 7 $                                               ",
"    b Y ] %.3.p.g.p.g.9.9.p.F . * X.w.6.2.=.+.#.o.o.{ [ { { { ..&.<.e.a.v.%.I t %                                               ",
"    g I ] =.7.r.p.7.5.5.5.5.F . X q.V.V.h.:.+...o.o.{ [ ` ` ` { #.&.&.e.r.7.[ G 9                                               ",
"    8 I ` +.2.7.3.6.6.5.5.5.*.X.V.H.J.J.H.V.>.+.+...{ [ ` [ ` [ o.$.&.4.3.2...U p :                                             ",
"    2 J T | =.:.7.7.9.k.C.C.C.L.J.K.K.K.K.H.h.>.:.=.+.[ ` ` ! ` { #.$.=.2.&.+.Q G f                                             ",
"    q J I ` +.:.6.9.A.S.Q.=X;X=XOX+X@X@X+XJ.V.5.6.>.:.+.| [ Y ` ] o.#.#.=.&.$.[ I x 3                                           ",
"    9 J Y ! | 2.6.l.D.*X2X3X2X2X<X$X+X+X#XG.=.>.>.6.6.>.:...[ ` ! { { o.%.%.+.! U z f                                           ",
"    g R o.7.6.q.g.C.=X2X1X1X2X2X3X<X-XOXD.L I 6.5.t.t.5.>.;.+.! ` [ ` [ { o.{ ] Y G q f                         3 2             ",
"  N &.k.!.E.b.j.j.~.>X>X1X2X4X5X5X3X3X;XY = ! 5.y.y.y.q.5.6.*.+.` Q Y ! ` ] ] ] ` P u 4                     d u 8               ",
"  u.E.Q.Q.U.j.j.W.&X=X>X2X4X5X6X6X6X5X3Xt.< ` t.k.S.j.5.5.7.>.=.| ! Y Y Y Y ! ~ | ~ z q 4                 d L u                 ",
"9 @.9.9.2.=.q.W.*X=X>X2X3X4X5X5X6X6X6X4XD.% Y q.k.!.C.5.:.:.7.:.=.| T Y Y Y Y Y ~ ~ H u 5                 E E e                 ",
"  g n R { g.Y./.}.|.&X;X>X1X3X3X5X5X5X4X~.% J 5.x.!.b.r.! A 6.6.:.+.~ Y P P P I Y Q H z x 0             n +.K 7 -               ",
"                    A B._.%X;X1X2X4X4X3X=Xq 5 =.j.E.x.:.~ r 5.6.:.=...Y H G P P P P H G z l 0           L / A = & *             ",
"                    O o E W.|.%X=X:X1X1X>X| % Q 5.Y.b.=.| X.%XT.9.*.+.| U G z G s z z z z G z l 4       u A e 6 A K c           ",
"                    = @ o t A._. X X%X=X;XS.% w ..p.0.=.+.L.2X3X*XL.:.+.[ U G u e t e u u z z J n t 8 6 7 e s E =.5.>.X./ / E   ",
"                  * 6 = @ o @ ! W. X X{. X_.R % I +.2.=.=.C.;X3X4X3X*XY.>.! I H z u u e e e e e t 7 6 = = K =.j.A.S.Z.k.q.Y d   ",
"                  q s r e = @ +   .X.X{.{._.Y.4 5 ! =.=.+.7.Q.:X2X3X4X4X:XW.5.~ P H G u e 6 6 6 = e = < y Y 9.j.j.y.7.[ l ,     ",
"                    A G s s e a       _.{.{.{.C.9 t ! +.+...g.Q.*X:X1X3X5X5X1X~.A.;.! H u e u e e = %     j n J G c 9 4         ",
"                    L E E s r             [..X[.b.p t P ~ ~ ~ q._.%X=X:X,X3X3X4X2X:X%XQ.S.C.h.h.k.C.                            ",
"                    E q.k.L u                 [.[.Y.{ d s H H ..Q. X X%X&X=X;X;X;X=X&X&X&X%X X X.X                              ",
"                      j.S.:.d                       /.F.g.6.j.Y._._.{.{._.{.{.[.'._._._._.{.{.                                  ",
"                      ^ p.*.                              .X_..X'.[.'.[.{.[.[.[.[.[./.}.                                        ",
"                                                                                                                                ",
"                                                                                                                                ",
"                                                                                                                                ",
"                                                                                                                                ",
"                                                                                                                                ",
"                                                                                                                                ",
"                                                                                                                                ",
"                                                                                                                                ",
"                                                                                                                                ",
"                                                                                                                                ",
"                                                                                                                                ",
"                                                                                                                                ",
"                                                                                                                                ",
"                                                                                                                                ",
"                                                                                                                                "
};
