/* XPM */
static char *f12a2cddacf342df8c0d4d25dbf13439bpvBYsu85PbUgABd[] = {
/* columns rows colors chars-per-pixel */
"64 64 181 2 ",
"   c #20070F",
".  c #2A151A",
"X  c #2F161D",
"o  c #361113",
"O  c #3A1516",
"+  c #371A1B",
"@  c #3A191B",
"#  c #39221E",
"$  c #321A22",
"%  c #3A1E21",
"&  c #3C2225",
"*  c #3F2529",
"=  c #431714",
"-  c #411F1E",
";  c #421F20",
":  c #432222",
">  c #4E2626",
",  c #462A26",
"<  c #4C2926",
"1  c #4C2229",
"2  c #462A29",
"3  c #4A292A",
"4  c #512727",
"5  c #562B2A",
"6  c #5C2C2B",
"7  c #57372D",
"8  c #4F3537",
"9  c #443439",
"0  c #4F3639",
"q  c #503537",
"w  c #5D3D35",
"e  c #662F2E",
"r  c #792E2D",
"t  c #62312C",
"y  c #6B352D",
"u  c #6E3A2D",
"i  c #79352F",
"p  c #6A2F32",
"a  c #673631",
"s  c #6B3431",
"d  c #6F3831",
"f  c #763533",
"g  c #7A3533",
"h  c #743935",
"j  c #7C3A35",
"k  c #7E3938",
"l  c #5E4034",
"z  c #78462D",
"x  c #7E472D",
"c  c #624134",
"v  c #7A4333",
"b  c #7F4239",
"n  c #784A44",
"m  c #6E514A",
"M  c #655256",
"N  c #803E37",
"B  c #813E39",
"V  c #834136",
"C  c #8A4637",
"Z  c #844A32",
"A  c #854139",
"S  c #8A463B",
"D  c #8B493B",
"F  c #974F37",
"G  c #944D3D",
"H  c #8B563A",
"J  c #935635",
"K  c #96513A",
"L  c #9D553B",
"P  c #9A5A39",
"I  c #A1563C",
"U  c #A45A3D",
"Y  c #A95E3C",
"T  c #AF6637",
"R  c #AE633E",
"E  c #B3673D",
"W  c #BA673E",
"Q  c #B4693E",
"!  c #BA6C3D",
"~  c #C26C3C",
"^  c #C4743D",
"/  c #C9753E",
"(  c #CA793E",
")  c #D37C3F",
"_  c #864040",
"`  c #954E40",
"'  c #945143",
"]  c #975743",
"[  c #9D5C44",
"{  c #9E5E4C",
"}  c #A65B40",
"|  c #A05F4B",
" . c #9A6245",
".. c #9D644C",
"X. c #A46046",
"o. c #AE6340",
"O. c #A2634D",
"+. c #A7684E",
"@. c #B26641",
"#. c #B66A40",
"$. c #BC6E40",
"%. c #BB7047",
"&. c #A56852",
"*. c #AD6E54",
"=. c #B07154",
"-. c #B2765C",
";. c #B97D5C",
":. c #C26D43",
">. c #C67541",
",. c #CB7742",
"<. c #CB7A42",
"1. c #C57848",
"2. c #CA7F4B",
"3. c #D27944",
"4. c #C27852",
"5. c #CC814D",
"6. c #D0844E",
"7. c #CE8352",
"8. c #C68159",
"9. c #D28553",
"0. c #D28B55",
"q. c #D58C59",
"w. c #D9925B",
"e. c #C28868",
"r. c #D08F67",
"t. c #CC9369",
"y. c #D79360",
"u. c #D99460",
"i. c #D5996E",
"p. c #D69C74",
"a. c #DA9E75",
"s. c #D9A677",
"d. c #D2A579",
"f. c #DDA57A",
"g. c #E4A66F",
"h. c #E5A772",
"j. c #E9AA73",
"k. c #E2A77A",
"l. c #E1AA79",
"z. c #EBAF7D",
"x. c #ECB37E",
"c. c #F3BB7E",
"v. c #6693A3",
"b. c #6893A3",
"n. c #7BBFD4",
"m. c #7AC2D7",
"M. c #73C6DD",
"N. c #7BC2D8",
"B. c #6DCAE4",
"V. c #6FCFEB",
"C. c #71C7E1",
"Z. c #76C6E5",
"A. c #72CAE4",
"S. c #6FD0EC",
"D. c #74D3EE",
"F. c #AF8880",
"G. c #B69289",
"H. c #8AABB7",
"J. c #8AACB8",
"K. c #EEB681",
"L. c #EEB883",
"P. c #EFBB89",
"I. c #F1B784",
"U. c #F1B982",
"Y. c #F2B882",
"T. c #F2BA84",
"R. c #F4BD88",
"E. c #F9BF88",
"W. c #F9BF89",
"Q. c #FABF89",
"!. c #F7C089",
"~. c #F6C189",
"^. c #F9C189",
"/. c #F9C28B",
"(. c #F9C38B",
"). c #FBC58A",
"_. c #FDC891",
"`. c #DFD6CC",
"'. c #ECE6DA",
"]. c #E6E7EA",
"[. c #FAFDFE",
/* pixels */
"A.A.A.A.A.A.A.A.A.A.A.A.A.A.A.M.C.C.C.C.C.Z.A.C.A.M.A.M.A.C.A.M.A.M.A.C.A.M.A.M.M.A.A.M.A.M.M.A.M.A.A.A.A.A.A.A.A.A.A.A.A.A.A.A.",
"A.A.A.A.A.A.A.A.A.A.A.A.A.Z.B.D.V.V.V.V.V.D.V.V.V.V.V.V.V.V.V.V.V.V.V.S.V.V.V.V.V.V.V.V.V.V.V.D.S.B.A.A.A.A.A.A.A.A.A.A.A.A.A.A.",
"A.A.A.A.Z.A.A.A.A.A.A.A.A.C.M.J.H.H.H.H.H.H.H.H.J.J.H.H.H.H.H.H.H.H.H.H.H.H.H.H.J.J.J.H.H.J.J.J.H.n.B.A.A.A.A.A.A.A.A.A.A.A.A.A.",
"A.A.A.A.D.A.A.A.A.A.A.A.A.V.N.w - ; ; ; - - - - : : @ : - - : - : - - - : - - : - - - : : - @ : = b.D.A.A.A.A.A.A.A.A.A.A.A.A.A.",
"A.A.A.A.A.A.A.A.A.A.A.C.C.A.N.0 + & : , , , 2 2 , , 2 2 2 2 2 2 2 2 2 2 2 2 2 2 2 2 2 2 2 2 , * O v.D.C.A.A.A.A.A.A.A.A.A.A.A.A.",
"A.A.A.A.A.A.A.A.A.A.A.B.A.A.N.8 + a h ..f.s.s.s.s.s.s.s.s.s.s.s.s.s.s.s.s.s.s.s.s.s.s.s.s.s.d.w o v.D.C.A.A.A.A.A.A.A.A.A.A.A.A.",
"A.A.A.A.A.A.A.A.A.A.A.A.A.A.m.8 + h j -.).W.W.W.!.!.^.W.!.W.W.W.!.!.W.W.E.W.!.W.W.W.W.W.^.^.Y.c o b.D.C.A.C.A.A.A.A.A.A.A.A.A.A.",
"A.A.A.A.A.A.A.A.A.A.A.A.A.B.N.8 + d j X.w.q.q.q.q.q.q.q.q.q.q.q.q.q.q.q.q.q.q.q.q.q.q.0.u.L.I.l o b.D.M.A.A.A.A.A.A.A.A.A.A.A.A.",
"A.A.A.A.A.A.A.A.A.A.A.A.A.A.N.0 + d N L ^ ~ ^ ^ ^ ^ ^ ^ ~ ^ ^ ^ ^ ^ ^ ~ ^ ~ / ^ ~ / >.~ 2.Y.I.l o b.D.A.A.A.A.A.D.Z.A.A.A.A.A.A.",
"A.A.A.A.A.A.A.A.A.A.A.A.C.A.N.0 + d N I ( / / / >.>.>.( >.>.>.>./ >.>.>.>.>.>.>.>.>.^ / 5.Y.I.c o b.D.Z.A.A.A.A.A.A.A.A.A.A.A.A.",
"A.D.A.A.A.A.A.A.A.A.A.A.A.A.N.8 + d N L ( >.<.<.>.,.<.<.,.,.,.>.<.<.,.>.<.<.>.( ,.,.>./ 5.Y.I.l o b.D.M.A.A.A.A.A.A.A.A.A.A.A.A.",
"A.A.A.A.A.A.A.A.A.A.A.A.A.A.N.0 + d N L ( / E E ! ! ! $.! ! $.$.! ! ! ! ! ! ! ! W E W / 7.I.I.l o b.D.A.A.M.A.A.A.A.A.A.A.A.A.A.",
"A.A.A.A.A.A.A.A.A.A.A.A.A.A.N.0 + d j L <.R : & j S B A A V A V A A A A V A V S 5 + v ,.5.T.I.w o b.D.B.A.A.A.A.A.A.A.A.A.A.A.A.",
"A.A.A.A.A.A.A.A.A.A.A.C.A.B.N.0 + d V L 5.T : % u V V B V N V V V b V N V V b V < + x ,.2.Y.P.l o b.D.M.A.A.A.A.A.A.A.A.A.A.A.A.",
"A.A.Z.A.A.A.A.A.A.A.A.A.A.B.N.q + u V P 3.! j f e.f.a.a.a.a.a.a.s.a.s.a.a.a.p.f.] s L ( 6.Y.Y.l o v.D.A.A.Z.A.D.A.A.A.A.A.A.A.A.",
"A.A.A.A.A.A.A.A.A.A.A.A.A.A.m.q @ h j L ( ! S B f.).!.^.(.(.(.(.!.!.^.^.^.(.!._.&.j I >.2.R.I.a o v.D.A.A.A.A.A.A.A.A.A.A.A.A.A.",
"A.A.A.A.A.A.A.A.A.A.A.A.A.B.m.q + d j L <.! A V 8.w.w.y.u.w.w.u.y.y.y.y.u.y.y.u.] g I / 5.L.I.l o b.D.M.A.A.A.A.A.A.A.A.A.A.A.A.",
"A.A.A.A.A.A.A.A.A.A.A.A.A.A.m.q + d V I <.! V b W ( ^ ^ ^ ^ ^ / / ^ / / / ^ >.( K k I / 5.T.I.l o b.D.A.A.A.A.A.A.A.A.A.A.A.A.A.",
"A.A.A.A.A.A.D.Z.A.A.A.A.A.B.N.q + u b L <.! V N R Q #.#.#.#.E Q #.#.#.#.E Q #.#.G j U ( 5.T.T.l o v.D.A.A.A.A.A.A.A.A.A.A.A.A.A.",
"A.A.A.A.A.A.A.A.A.A.A.A.A.A.N.8 + h j L <.! A N k b k b k b V k k b N N b k j b N B I ( 5.T.L.l o v.D.C.A.A.A.A.A.A.A.Z.A.A.A.A.",
"A.A.A.A.A.A.A.A.A.A.A.A.M.V.m.q + h N L <.! V N A D D D D D S S D D D D D _ D D V N I / 5.Y.L.l o b.D.C.A.A.A.A.A.A.A.A.A.A.A.A.",
"A.A.A.A.A.A.A.A.A.A.A.A.A.A.m.q + u N L <.! A V t.x.f.f.f.l.f.l.f.l.f.f.f.f.f.z.| g U ^ 5.Y.I.a o b.D.C.A.A.A.A.A.A.A.A.A.A.A.A.",
"A.A.A.A.A.A.A.A.A.A.A.A.A.B.m.q + u N I <.! V B s._.!.!.^.^.^.!.!.!.^.!.(.!.(.(.O.g U / 5.Y.I.l o b.D.C.B.A.A.A.A.A.A.A.A.A.A.A.",
"A.A.A.A.A.A.A.A.A.A.A.A.A.A.m.8 + d N I <.! V N 4.w.0.q.q.0.0.0.q.0.q.q.0.q.q.q.L g U / 5.Y.I.l o b.D.M.A.A.A.A.A.A.A.A.A.A.A.A.",
"A.A.A.A.A.Z.A.A.A.A.A.A.A.V.m.q + d N L <.! C B W ( / ^ ^ ^ / / ( ^ ^ ^ ^ ^ ^ ( K B I / 2.Y.I.l O b.D.M.A.A.A.A.A.A.A.A.A.A.A.D.",
"A.A.A.A.A.A.A.A.A.A.A.A.A.A.m.q + d N L ) Q a a U E R R o.o.R R R o.o.R R R R Q b e J / 2.Y.I.l o b.D.Z.A.A.A.A.A.A.A.A.A.A.A.A.",
"A.D.A.A.D.M.A.A.A.A.A.A.A.A.m.q + d N L 3.R & # s N j j k j j j j j j j j j g k 4 X x ,.6.Y.I.l o b.D.A.A.A.A.A.A.A.A.A.A.A.A.A.",
"A.A.A.A.A.A.A.A.A.A.A.A.A.A.m.q + d N L <.E > : A ' ' ' ' ' ` ` ' ' ' ' ' ' ' ' e % Z ,.2.I.I.c o b.D.M.A.A.A.A.A.A.A.A.A.A.A.A.",
"A.A.A.A.A.A.A.A.A.A.A.A.A.A.m.q + u N L <.! V k p.L.z.x.x.x.z.x.x.z.z.x.x.x.x.K.O.f [ / 5.L.Y.l o b.D.M.A.A.A.A.A.A.A.A.A.A.A.A.",
"A.A.A.A.A.A.A.A.A.A.A.A.A.A.N.q + f V L <.! V V a.!.R.R.I.R.R.R.I.R.R.R.R.R.I.W.O.g I ,.5.Y.I.l o b.D.A.A.A.A.A.A.A.A.M.A.A.A.A.",
"A.A.Z.A.A.A.A.A.A.A.A.A.A.A.N.q + d j L <.! A V %.9.7.6.6.6.6.6.6.6.6.6.2.9.7.9.L g U ( 5.I.I.l o b.D.B.A.A.A.A.A.A.A.D.A.A.A.A.",
"A.A.A.A.A.A.A.A.A.A.A.A.A.A.N.q + d N L <.! A V $.,.>.>./ / / / / ( / / / ( ^ ( K j Y 3.9.I.I.l o v.D.M.A.Z.A.A.A.A.A.A.A.A.A.A.",
"A.A.A.A.A.A.A.A.A.A.A.A.A.A.N.8 + u V L ,.! B N [ Y Y Y } Y U Y U } Y U } Y Y R D j A Z  .c.I.l o b.D.A.A.C.A.A.A.A.A.A.A.A.A.A.",
"A.A.A.A.A.A.A.A.A.A.A.C.A.B.N.8 + h j L ,.! S N k g f g g g g g g g g g g g g f k S 6   7 x.I.l o b.D.A.A.A.A.A.A.A.A.A.A.A.A.A.",
"A.A.A.A.A.A.A.A.A.A.A.A.A.B.N.8 + d b L <.! A N ] | { { ..O.O.{ O.O.{ ..{ { { { _ A n M m !.L.l o b.D.C.A.A.A.A.A.A.A.A.A.A.A.A.",
"A.A.A.A.A.A.A.A.A.A.A.A.A.V.N.8 + d V L <.! V V a.W.R.R.R.T.I.W.W.I.W.I.W.R.R.R.&.r G.[.'.(.I.l o b.D.C.A.A.A.A.A.A.A.A.A.A.A.A.",
"A.A.A.A.A.A.A.A.A.A.A.A.A.A.N.8 + f j L <.! C V p.c.x.c.K.K.I.x.x.Y.I.x.K.x.x.c.O.r F.].`.R.L.l o b.D.C.B.A.A.A.A.A.A.A.A.A.A.A.",
"A.A.A.A.A.A.A.A.A.A.A.A.A.A.N.8 + u V L <.! A k %.5.2.2.2.2.2.2.5.2.2.2.2.2.2.5.' k v 9 m L.Y.l o b.D.C.A.A.A.A.A.A.A.A.A.A.A.A.",
"A.A.D.Z.A.A.A.A.A.A.A.A.A.B.m.q + u b L <.! C V W / ^ ( >./ >.>.( ^ >./ / ( ^ / K A e . w L.Y.l o b.D.M.A.A.A.A.A.A.A.A.A.A.A.A.",
"A.A.A.Z.A.A.A.A.A.A.A.A.A.A.m.q + h j L <.@.6 5 D I L L I L I L L L L L L L K L y 5 2 & a T.I.l o b.D.A.A.A.A.A.A.A.A.A.A.A.A.A.",
"A.A.A.A.A.A.A.A.A.A.A.A.A.A.m.8 + d N L 3.E # + e i g f g f g g g g g g g f f g 1 X % . w L.Y.l o b.D.M.A.A.A.A.A.A.A.A.A.A.A.A.",
"A.A.A.A.A.A.A.A.A.A.A.A.A.B.N.8 + d N L <.Q 6 5 { =.*.*.*.*.*.*.*.*.*.*.*.*.*.=.v 3 y u H L.T.l o v.D.B.A.A.A.A.A.A.A.A.A.A.A.A.",
"A.A.A.A.A.A.A.A.A.A.A.C.A.A.N.8 + u j L <.~ A V s.).W.!.^.(.(.(.^.R.^.).(.W.W.(.+.i U ,.9.Y.I.l o b.D.M.A.A.A.A.A.A.A.A.A.A.A.A.",
"A.A.A.A.A.A.A.A.A.A.A.A.A.A.N.8 + h N L <.Q b V i.x.z.x.z.z.z.z.K.z.z.K.z.z.z.K.O.h I ^ 5.Y.I.l o b.D.A.A.A.A.A.A.A.A.A.A.A.A.B.",
"A.A.A.A.A.A.A.A.A.A.A.A.A.B.m.q + d V L <.! C N $.<.1.,.>.<.<.,.,.,.>.<.<.>.>.<.K j I / 6.Y.I.l o b.D.C.A.A.A.A.A.A.A.M.A.A.A.B.",
"A.A.A.A.A.A.A.A.A.A.A.A.A.A.m.q + d V L <.! A V Q / >.>.>.^ >.>.>.>.^ >.^ 1.>.>.G j I / 2.Y.L.l o b.D.C.A.A.A.A.A.A.A.B.A.A.A.M.",
"A.A.A.A.A.A.A.A.A.A.A.A.A.A.m.8 + d k L ,.! A N G F G ` ' K G G ` ` ` ` ' G K G C k U / 5.I.I.a o b.D.C.A.A.A.A.A.A.A.A.A.A.B.Z.",
"A.A.A.A.A.A.A.A.A.A.A.A.A.V.m.8 + d V L <.! A N g i g f g f g g f g g g g f g g N k I ( 5.R.I.w o b.D.C.A.A.A.A.A.A.A.A.A.A.A.M.",
"A.D.A.A.A.A.A.A.A.A.A.A.A.A.N.q + d N L <.! A N *.;.;.;.;.;.;.;.;.;.;.;.;.;.;.;.' j I / 5.Y.I.l o b.D.C.A.C.A.A.A.A.A.A.A.A.C.M.",
"A.A.A.A.A.A.A.A.M.D.A.A.A.A.m.q + d N L <.! A V f._.(.).(.(.^.(.).(.^.!.(.(.(._.O.g U ,.5.L.Y.l o b.D.C.A.A.A.A.A.A.A.A.A.A.A.M.",
"A.A.A.A.A.A.M.D.A.A.A.A.A.A.m.q + u V L <.! C j r.j.g.l.h.h.h.h.h.l.l.h.l.g.g.j.| g I / 5.Y.I.l o b.D.C.A.A.A.A.A.A.A.A.A.C.A.M.",
"A.A.A.A.A.A.A.A.A.A.A.A.A.A.m.q + h j L <.! A N #.<.>.>.>.:.>.,.>.>.>.>.>./ ^ / K j U >.5.L.Y.l o b.D.C.A.A.A.A.A.A.A.A.A.B.C.M.",
"A.A.A.Z.A.A.A.A.A.A.A.M.A.A.N.q + d j L <.! b j @.>.>.^ ^ >.~ >.^ / ^ ^ ^ ^ ^ ^ G g I ,.5.L.I.l o b.D.C.B.A.A.A.A.A.A.A.A.A.A.C.",
"A.A.A.A.A.A.A.A.A.A.A.A.A.A.m.q + d V L <.T < 3 j S S S S S G B D D S S S S S S t # Z ,.5.Y.I.l o b.D.C.A.A.A.A.A.A.A.C.A.A.B.B.",
"A.A.A.A.A.A.A.A.A.A.A.A.A.V.m.8 + h b L 3.T + $ d N k k N N N N N V j j k k k B ; . z ,.5.L.I.l o b.D.M.A.A.A.A.A.A.A.A.A.C.A.B.",
"D.M.A.A.A.A.A.A.A.A.A.A.A.A.N.8 + d j L <.^ P J R R R R Y R Y o.} R @.Y @.Y R o.I J E / 5.Y.I.l o b.D.A.A.A.A.A.A.A.A.A.A.A.C.B.",
"A.A.A.A.A.A.A.A.A.A.A.A.A.A.N.0 + d j L <.>.<.3.) 5.<.<.<.<.,.,.,.,.,.<.<.<.<.,.<.5.( ^ 2.Y.I.l o b.D.C.A.A.A.A.A.A.A.A.A.A.A.Z.",
"A.A.A.A.A.A.A.A.A.A.A.A.A.B.m.8 + d N L >.>.>.>.^ ! ^ ^ ^ ^ ^ / ^ / ^ / ^ ^ ^ ^ ! / ( ^ 2.c.K.w o b.D.C.A.A.A.A.A.A.A.A.A.A.A.B.",
"A.A.A.A.A.A.A.A.A.A.A.A.A.B.m.8 + h N I <.>.,.<.( ,.<.,.<.>.>.,.>.,.,.,.>.<.,.,.,.<.>./ 5.W.Y.l o b.D.C.A.A.A.A.A.A.A.A.B.A.A.B.",
"A.A.A.A.A.A.A.A.A.A.A.A.A.A.m.q + d N L >.#.$.$.$.! $.$.$.$.$.$.$.$.$.$.$.$.$.$.$.$.$.#.1.k.k.w o b.D.C.A.A.A.A.A.A.A.A.C.A.Z.A.",
"D.A.A.A.A.A.A.A.A.A.A.A.A.V.m.q @ f N V A A A A A A A C A A A S A A A A C A A C A A A A A S A 3 O v.D.Z.A.A.A.A.A.A.A.C.A.A.A.A.",
"Z.Z.A.A.A.A.A.A.A.A.A.A.A.A.m.8 X u V N k A V B V V V k N N N B A B V N b V A k B N V A N N B 2 O v.D.B.A.A.A.A.A.A.A.A.A.A.C.A.",
"A.A.A.A.A.A.A.A.A.A.A.A.A.B.m.8 + 1 > > < < > > > > < > 3 > > > > > > > > > 2 > > > > > > > 1 * O v.D.Z.A.A.A.A.A.A.A.A.A.A.A.A.",
"A.A.A.A.A.A.A.A.A.A.A.A.A.B.N.8 % * % & & * & & & & * & & & & & & * & & & & & * & & & & & & * : @ v.S.C.A.A.A.A.A.A.A.A.A.C.A.B."
};