/* XPM */
static char *_baf97b298714571c85d506a0948b13btwGfih8wjpXp0eY8[] = {
/* columns rows colors chars-per-pixel */
"64 64 5 1 ",
"  c black",
". c #FFF200",
"X c #2F3699",
"o c #00B7EF",
"O c #99D9EA",
/* pixels */
"XXXXXXXXXXXXXXXXXXXXXXXXXXXXXXXXXXXXXXXXXXXXXXXXXXXXXXXXXXXXXXXX",
"XXXXXXXXXXXXXXXXXXXXXXXXXXXXXXXXXXXXXXXXXXXXXXXXXXXXXXXXXXXXXXXX",
"XXXXXXXXXXXXXXXXXXXXXXXXXXXXXXXXXXXXXXXXXXXXXXXXXXXXXXXXXXXXXXXX",
"XXXXXXXXXXXXXXXXXXXXXXXXXXXXXXXXXXXXXXXXXXXXXXXXXXXXXXXXXXXXXXXX",
"XXXXXXXXXXXXXXXXXXXXXXXXXXXXXXXXXXXXXXXXXXXXXXXXXXXXXXXXXXXXXXXX",
"XXXXXXXXXXXXXXXXXXXXXXXXXXXXXXXXXXXXXXXXXXXXXXXXXXXXXXXXXXXXXXXX",
"XXXXXXXXXXXXXXXXXXXXXXXXXXXXXXXXXXXXXXXXXXXXXXXXXXXXXXXXXXXXXXXX",
"XXXXXXXXXXXXXXXXXXXXXXXXXXXXXXXXXXXXXXXXXXXXXXXXXXXXXXXXXXXXXXXX",
"XXXXXXXXXXXXXXXXXXXXXXXXXXXXXXXXXXXXXXXXXXXXXXXXXXXXXXXXXXXXXXXX",
"XXXXXXXXXooooooooooooooooooooooooooooooooooooooooooooooXXXXXXXXX",
"XXXXXXXXXooooooooooooooooooooooooooooooooooooooooooooooXXXXXXXXX",
"XXXXXXXXXooooooooooooooooooooooooooooooooooooooooooooooXXXXXXXXX",
"XXXXXXXXXooooooooooooooooooooooooooooooooooooooooooooooXXXXXXXXX",
"XXXXXXXXXooooooooooooooooooooooooooooooooooooooooooooooXXXXXXXXX",
"XXXXXXXXXooooooooooooooooooooooooooooooooooooooooooooooXXXXXXXXX",
"XXXXXXXXXooooooooooooooooooooooooooooooooooooooooooooooXXXXXXXXX",
"XXXXXXXXXooooooooooooooooooooooooooooooooooooooooooooooXXXXXXXXX",
"XXXXXXXXXooooooooooooooooooooooooooooooooooooooooooooooXXXXXXXXX",
"XXXXXXXXXooooooooooooooooooooooooooooooooooooooooooooooXXXXXXXXX",
"XXXXXXXXXooooooooooooooooooooooooooooooooooooooooooooooXXXXXXXXX",
"XXXXXXXXXooooooooooooooooooo       ooooooooooooooooooooXXXXXXXXX",
"XXXXXXXXXooooooooooooooooo  OOOO.OO  ooooooooooooooooooXXXXXXXXX",
"XXXXXXXXXooooooooooooooo  O.O.OOO.OOO  ooooooooooooooooXXXXXXXXX",
"XXXXXXXXXoooooooooooooo OOOOOOOO.O.O.OO oooooooooooooooXXXXXXXXX",
"XXXXXXXXXooooooooooooo OOO..O.O.O.OOOOO. ooooooooooooooXXXXXXXXX",
"XXXXXXXXXoooooooooooo OOO.OO.OOO.OOO.OOOO oooooooooooooXXXXXXXXX",
"XXXXXXXXXoooooooooooo .OO.OOOO.OOOO.OOO.O oooooooooooooXXXXXXXXX",
"XXXXXXXXXooooooooooo OOOOO.OOOOOO.OOO.OOO. ooooooooooooXXXXXXXXX",
"XXXXXXXXXooooooooooo OO.OOOO.OOOOOO.OOO.OO ooooooooooooXXXXXXXXX",
"XXXXXXXXXoooooooooo OOOOOO.OOO...OOOOOOOO.O oooooooooooXXXXXXXXX",
"XXXXXXXXXoooooooooo OO..OOOOO.....OOO.OOOOO oooooooooooXXXXXXXXX",
"XXXXXXXXXoooooooooo .OOO.OOO.......OOOO.O.. oooooooooooXXXXXXXXX",
"XXXXXXXXXoooooooooo OO.OOOOO.......OOOOOOOO oooooooooooXXXXXXXXX",
"XXXXXXXXXoooooooooo OOOOOO.O.......OO.O..O. oooooooooooXXXXXXXXX",
"XXXXXXXXXoooooooooo O.OO.O.OO.....OOOO.OOOO oooooooooooXXXXXXXXX",
"XXXXXXXXXoooooooooo OOOOOOOOOO...OO.OOOOO.O oooooooooooXXXXXXXXX",
"XXXXXXXXXooooooooooo OOOO.OO.O.OO.OO.O.O.O ooooooooooooXXXXXXXXX",
"XXXXXXXXXooooooooooo OO.OOOOO..OOOOOOOOOOO ooooooooooooXXXXXXXXX",
"XXXXXXXXXoooooooooooo OOOO.OO.OOO.OO.O.OO oooooooooooooXXXXXXXXX",
"XXXXXXXXXoooooooooooo O.OOOOOOO.OOOOOOOOO oooooooooooooXXXXXXXXX",
"XXXXXXXXXooooooooooooo OOO.O.OOOOO.OO.OO ooooooooooooooXXXXXXXXX",
"XXXXXXXXXoooooooooooooo OOOO.O.OOOOOOOO oooooooooooooooXXXXXXXXX",
"XXXXXXXXXooooooooooooooo  OOOOO.OOOOO  ooooooooooooooooXXXXXXXXX",
"XXXXXXXXXooooooooooooooooo  OOOOOOO  ooooooooooooooooooXXXXXXXXX",
"XXXXXXXXXooooooooooooooooooo       ooooooooooooooooooooXXXXXXXXX",
"XXXXXXXXXooooooooooooooooooooooooooooooooooooooooooooooXXXXXXXXX",
"XXXXXXXXXooooooooooooooooooooooooooooooooooooooooooooooXXXXXXXXX",
"XXXXXXXXXooooooooooooooooooooooooooooooooooooooooooooooXXXXXXXXX",
"XXXXXXXXXooooooooooooooooooooooooooooooooooooooooooooooXXXXXXXXX",
"XXXXXXXXXooooooooooooooooooooooooooooooooooooooooooooooXXXXXXXXX",
"XXXXXXXXXooooooooooooooooooooooooooooooooooooooooooooooXXXXXXXXX",
"XXXXXXXXXooooooooooooooooooooooooooooooooooooooooooooooXXXXXXXXX",
"XXXXXXXXXooooooooooooooooooooooooooooooooooooooooooooooXXXXXXXXX",
"XXXXXXXXXooooooooooooooooooooooooooooooooooooooooooooooXXXXXXXXX",
"XXXXXXXXXooooooooooooooooooooooooooooooooooooooooooooooXXXXXXXXX",
"XXXXXXXXXooooooooooooooooooooooooooooooooooooooooooooooXXXXXXXXX",
"XXXXXXXXXXXXXXXXXXXXXXXXXXXXXXXXXXXXXXXXXXXXXXXXXXXXXXXXXXXXXXXX",
"XXXXXXXXXXXXXXXXXXXXXXXXXXXXXXXXXXXXXXXXXXXXXXXXXXXXXXXXXXXXXXXX",
"XXXXXXXXXXXXXXXXXXXXXXXXXXXXXXXXXXXXXXXXXXXXXXXXXXXXXXXXXXXXXXXX",
"XXXXXXXXXXXXXXXXXXXXXXXXXXXXXXXXXXXXXXXXXXXXXXXXXXXXXXXXXXXXXXXX",
"XXXXXXXXXXXXXXXXXXXXXXXXXXXXXXXXXXXXXXXXXXXXXXXXXXXXXXXXXXXXXXXX",
"XXXXXXXXXXXXXXXXXXXXXXXXXXXXXXXXXXXXXXXXXXXXXXXXXXXXXXXXXXXXXXXX",
"XXXXXXXXXXXXXXXXXXXXXXXXXXXXXXXXXXXXXXXXXXXXXXXXXXXXXXXXXXXXXXXX",
"XXXXXXXXXXXXXXXXXXXXXXXXXXXXXXXXXXXXXXXXXXXXXXXXXXXXXXXXXXXXXXXX"
};
