/* XPM */
static char *_9c3367ddb9644bcdde948fe93b07edbaRbVUJTJQI611ntc[] = {
/* columns rows colors chars-per-pixel */
"64 64 5 1 ",
"  c None",
". c #1D414F",
"X c #990030",
"o c #ED1C24",
"O c #FF7E00",
/* pixels */
"                                                                ",
"                                                                ",
"                                                                ",
"                                                                ",
"                                                                ",
"                                                                ",
"                                                                ",
"                                                                ",
"                                                                ",
"                                                                ",
"                                                                ",
"                                                                ",
"                                                                ",
"                                                                ",
"                                                                ",
"                                                                ",
"                                                                ",
"                                                                ",
"         XX                   XXXXXXXXXXXXXXXX                  ",
"         XXXX             XXXXXOOOOOOOOOXXXXXXX                 ",
"          XoXX          XXXOOOOOOOOOOOOXXXXXXXXX                ",
"          XXoXX         XOOOOOOOOOOOOOXXXXXXX..XX               ",
"           XXoXXX      XXOOOOOOOOOOOOXXXXXXXX..XXX              ",
"            XoooXXX   XXOOOOOOOOOOOOOXXXXXXXXXXXXX              ",
"            XoooooXX XXOOOOOOOOOOOOOOXXXXXXXXXXXXX              ",
"            XooooooXXXOOOOOOOOOOOOOOOXXXXXXXXXXXXX              ",
"            XooooooXXXOOOOOOOOOOOOOOOXXXXXXXXXXXXX              ",
"            XoooooXX XXOOOOOOOOOOOOOOOXXXXXXXXXXX               ",
"            XoooXXX   XXXOOOOOOOOOOOOOOXXXXXXXXX                ",
"            XooXX       XXXXOOOOOOOOOOOOXXXXXXX                 ",
"           XXoXX           XXXXXOOOOOOOOOXXXXX                  ",
"           XXX                 XXXXXXXXXXXXXXX                  ",
"          XXX                                                   ",
"         XX                                                     ",
"                                                                ",
"                                                                ",
"                                                                ",
"                                                                ",
"                                                                ",
"                                                                ",
"                                                                ",
"                                                                ",
"                                                                ",
"                                                                ",
"                                                                ",
"                                                                ",
"                                                                ",
"                                                                ",
"                                                                ",
"                                                                ",
"                                                                ",
"                                                                ",
"                                                                ",
"                                                                ",
"                                                                ",
"                                                                ",
"                                                                ",
"                                                                ",
"                                                                ",
"                                                                ",
"                                                                ",
"                                                                ",
"                                                                ",
"                                                                "
};
