/* XPM */
static char *a88f12e1411442ceaf072eaee8207980FuplkQLD91uiqAQ3[] = {
/* columns rows colors chars-per-pixel */
"64 64 256 2 ",
"   c #016D00",
".  c #056803",
"X  c #017401",
"o  c #0C7401",
"O  c #017C01",
"+  c #0A7B01",
"@  c #037C0B",
"#  c #0A7B0A",
"$  c #05730C",
"%  c #137C02",
"&  c #177A07",
"*  c #0A7A14",
"=  c #157914",
"-  c #116F00",
";  c #257810",
":  c #197827",
">  c #018301",
",  c #0B8302",
"<  c #018B01",
"1  c #0A8B02",
"2  c #03830B",
"3  c #058B0A",
"4  c #0B850B",
"5  c #138302",
"6  c #158708",
"7  c #019301",
"8  c #019C02",
"9  c #0A9D02",
"0  c #039B0A",
"q  c #0C9B0B",
"w  c #0B9404",
"e  c #139D02",
"r  c #12930E",
"t  c #169909",
"y  c #088514",
"u  c #178816",
"i  c #0A9C13",
"p  c #069A14",
"a  c #159E13",
"s  c #1A9C14",
"d  c #16991A",
"f  c #218606",
"g  c #279809",
"h  c #239A17",
"j  c #278C12",
"k  c #01A402",
"l  c #0CA402",
"z  c #01AC01",
"x  c #0BAC02",
"c  c #02A40B",
"v  c #0BA40C",
"b  c #02AC0B",
"n  c #0CAB0B",
"m  c #12A303",
"M  c #13AB03",
"N  c #13A30B",
"B  c #1BA40D",
"V  c #13AC0C",
"C  c #1CAC0D",
"Z  c #1CA803",
"A  c #01B301",
"S  c #0BB402",
"D  c #01BB01",
"F  c #0ABB01",
"G  c #02B30B",
"H  c #0BB30C",
"J  c #03BB0C",
"K  c #0CBB0B",
"L  c #12B304",
"P  c #13BB03",
"I  c #12B30C",
"U  c #1BB30C",
"Y  c #12BB0C",
"T  c #1AB706",
"R  c #03A514",
"E  c #0BA614",
"W  c #02AB13",
"Q  c #0CAC13",
"!  c #0CAB1B",
"~  c #07A71A",
"^  c #13A414",
"/  c #1BA513",
"(  c #13AB14",
")  c #1BAB14",
"_  c #14A31A",
"`  c #1CA41C",
"'  c #14AB1B",
"]  c #1CAB1C",
"[  c #02B313",
"{  c #0BB313",
"}  c #02BB14",
"|  c #0BBA14",
" . c #0BB31B",
".. c #0DBB1B",
"X. c #04B51A",
"o. c #13B313",
"O. c #1CB313",
"+. c #13BC14",
"@. c #1BBC14",
"#. c #13B31B",
"$. c #1CB41C",
"%. c #13BC1B",
"&. c #1DBC1B",
"*. c #23AA0A",
"=. c #23B60A",
"-. c #23A817",
";. c #32AA19",
":. c #21B51D",
">. c #27BA19",
",. c #34B315",
"<. c #189D25",
"1. c #0C9322",
"2. c #279E28",
"3. c #249C30",
"4. c #08AA24",
"5. c #1AA322",
"6. c #1DAD21",
"7. c #16A727",
"8. c #0BB624",
"9. c #1DB422",
"0. c #1DBC23",
"q. c #16B727",
"w. c #19B632",
"e. c #25A826",
"r. c #33A829",
"t. c #21B523",
"y. c #27BA27",
"u. c #35B826",
"i. c #24B933",
"p. c #37BA35",
"a. c #2AAA35",
"s. c #44BD32",
"d. c #02C402",
"f. c #0BC203",
"g. c #01CB02",
"h. c #02C20B",
"j. c #0DC40C",
"k. c #04CA0A",
"l. c #0CCC0B",
"z. c #08CB03",
"x. c #1CC30D",
"c. c #15C60A",
"v. c #01D30C",
"b. c #06D605",
"n. c #13D40B",
"m. c #0DC313",
"M. c #0BCA13",
"N. c #07C61A",
"B. c #13C413",
"V. c #1AC413",
"C. c #13CC14",
"Z. c #14C41C",
"A. c #1BC31C",
"S. c #15CB1D",
"D. c #1BCC1B",
"F. c #1BCB14",
"G. c #08D615",
"H. c #15D21C",
"J. c #1CD31D",
"K. c #18D817",
"L. c #24CB1C",
"P. c #24C61A",
"I. c #31C61B",
"U. c #25D51A",
"Y. c #27CC0D",
"T. c #08E508",
"R. c #15E90E",
"E. c #08E617",
"W. c #19E919",
"Q. c #09F517",
"!. c #17F719",
"~. c #14FA0D",
"^. c #25E71C",
"/. c #27F51A",
"(. c #0BCC23",
"). c #07C725",
"_. c #1DC523",
"`. c #1CCC24",
"'. c #1CC52B",
"]. c #1CCC2C",
"[. c #14C826",
"{. c #08D824",
"}. c #14DA23",
"|. c #17D626",
" X c #19C932",
".X c #24C423",
"XX c #2BC525",
"oX c #24CA24",
"OX c #23CC2C",
"+X c #2ACB2C",
"@X c #28C52A",
"#X c #36C628",
"$X c #24D324",
"%X c #27D829",
"&X c #34DA27",
"*X c #2BCB34",
"=X c #28C735",
"-X c #34C937",
";X c #2AD836",
":X c #35D937",
">X c #18E927",
",X c #0CF727",
"<X c #1DF42B",
"1X c #1AFA25",
"2X c #19E835",
"3X c #1DF332",
"4X c #18F837",
"5X c #08F131",
"6X c #29E526",
"7X c #24EC24",
"8X c #24E42B",
"9X c #2CEB2C",
"0X c #27E827",
"qX c #36E728",
"wX c #24F423",
"eX c #2BF324",
"rX c #24F32C",
"tX c #2BF32C",
"yX c #2BFB2C",
"uX c #24FB27",
"iX c #33F42C",
"pX c #36F829",
"aX c #2CE332",
"sX c #24EB34",
"dX c #2CEC34",
"fX c #25EC3D",
"gX c #2CEB3C",
"hX c #28E536",
"jX c #33E433",
"kX c #32EB33",
"lX c #38E839",
"zX c #2BF233",
"xX c #23FC32",
"cX c #2DF13B",
"vX c #24FC3A",
"bX c #28F835",
"nX c #35F333",
"mX c #3BF33C",
"MX c #37F937",
"NX c #42D33A",
"BX c #41E53A",
"VX c #44F739",
"CX c #43EE23",
"ZX c #36BA40",
"AX c #33C643",
"SX c #33D842",
"DX c #2CE644",
"FX c #36EA45",
"GX c #2CF742",
"HX c #37F745",
"JX c #36FF52",
"KX c #1FF942",
"LX c #49D24D",
"PX c #43E846",
"IX c #43F645",
"UX c #4AEC55",
/* pixels */
"1XI q.> ) aXV.+.#.< n lXd.M.^ + U qXD  X;.X ..1X{ `.e 7 J 8XW Y.c u n ^.@.oXz * } 9Xz OXc 2 e.!.S _.W X 9.hXA G.x 2 H yX^ ].F X ",
"# S bXA k.[ X H qXQ '. .X -.8 ! Q.v I.A > Q E.Z _.D ; q <X+.G.8 1 ( FXA v.z < r.R.' *X( 2 G 7X( N.U 6 G rXF N.x y S |.M Q.k @ -.",
"sX-.k.f.f _ 7Xh.A.j.3 X OXn X V GXx D.( O } PXF H.h.O 5.eXD OXo.M.d < x.NX+.H.p r z bXk x.k 0 t pXc ..( + N yXzXl C.n > n FX' n.",
"D U.7.  A dX/ L.{ @ 8 VX{ [.@.= V Q.I [.b 1 ! 6Xz OX[ 2 z pX` B.D r k rX7.D.A 1 ` yXA #Xy.q 0 /.) g.| , d.,Xd @X$.7 l GXl N.x 7 ",
"H.~ < =.jXd.=.8.1 A FXG g.z r E <Xy.C.L 3 ).k < -.wXb [.Y 1 x cXx A.( < G lXI P.c X V.!.D F 8 3.!.N s.} @ q 1XH $.k k l HXI q.+.",
"> M zXb D.b < A ^.n OXK 0 n 6XI [.A X M FX#.B.:.< z HX{ I ^ < D sX$.@XO.O H kXW }.V > q.UXw P.D X V.lXb n.U < b iX] A.o.> 0 MXA ",
"<Xg C.G ; d xXd.H.A > 4 hXJ .Xl < d.HX] J o.% D mXV G.> @.>Xr.G.x $ | Q.~ %Xz u 1.mXA oXz < 5.pXd.8.#.5 E 4XP P.6.X S !.l `.L $ ",
"V `.Q < d.<Xg  X_ < { cXS L.V 2 g gXA J.%.X O.DXA Y.<.4 D rXx =X( < l PXH Y t.O D %.[.q 2 G bXz .Xo.< [ jXM S.b 2 A UXd b.M 2 H ",
"< x lXA G.[ , ' /.V '.! 3 z <Xx D.a < D gXD .X& D >XQ @Xb X t.8Xk J.H < Q zXA F.] > Q lXF H.( > I <XD u.[ < -.<XM }.b > b PXe G.",
"lXx |.[ - r.4Xl (.x 7 c iXx -XJ # z.W.b M.e.O K 4X*.K.V > G.d.o +.aXp @XA < 5.1XA '.2.< 8 qXA AXR > d.rXI &.b 7 D :Xb SXs < h.7X",
"+ :.>Xd.|.z + 8.1Xq @X$.. ( <Xn h.+.X IXI h.%.O 8 rX..] P., i vXn U.( < G hXH I./ 7 J D.oXN.X S sXs.m.J 6 e.3Xl (.H w m xXD %Xe ",
"Z.H < c DX$.oXk < I FXz D.h.< h yX^ OXm < U rX^ #X4.7 g.h.^ 7 N 6XQ d.K ; C !.4.b.b . t.:XD 8Xc = z &XK b.z @ 9.yXx ..8.X ( >XD ",
"O.G.l 6 [ ;Xz U.E < n JXD Y ] > q yXF Z.*.7 e.!.4.U.8 4 *.kX' ].g.= O.!.W 4.C.X $.0Xf.+.-.X z yXS ].$.<  .PXl Z.c w | >Xc.kXJ p.",
"3 k vXz %XH < ..1X` $.H + $.xXn `.x < :.gX8 +.oXk < @.aXW |.A , z hXz -XU < ( fXz #Xb < } HX8 XXn y k pXz `.D y Z cXz 0.` X M ,X",
"A vXm :XR % U E.p aX{ X P dXW >.M >  .>X) U.F @ T 4Xq .Xf.- 6.,Xe.g.K y 8 H.E < E cXP V./ X [ tXK g.<.* A mX_ b.Q O @.nXA $X8 w ",
"2X*.H.A 5 X.5X;.K.t < X.PXA b.F # n cXJ h.V < n 3XL D.( > J nXM A.%.< z VX( y.J < V 8XK OXb 7 n W.t.=Xk 7 z /.Q XX} > Z cXJ >.H ",
"< n 0XS |.k + +.fXz #Xn + B 4XA S.K O s eXd.'.^ > H 7XN G.A $ | lX( D.D < 8 MXx C.Q + +Xk 2 Q /.G H.v 1 D lX^ |.e.X A /.D A.H @ ",
"t GXF D.b 1 n U.f.+X8 q W gX=.Z.M 4 c vXd.n.z u _ /.I (.r.2 { 7Xd.l.h # z HX8 6Xq u A !.&Xw < X.uX-.@XW # c <Xx g.+.1.u /.g.%.7.",
"U.z < v FXH |.%.o x <Xd.G.c o =.pX8 =Xi X U tXG D.D X s |.( $X{ 2 z nXJ C.( 7 %Xl.x.E O k UXa b.V < c HXz %XI > @.7XJ q.8.< n eX",
"2 o.bXD 9.q.1 z ~.} p.e.< %.eX8 '.I 7 %.^.L -XG # 9.!.L }.I # A /.$.i.' X S nX} `.8 1 l.;Xc H.U 6 z FXz T.D X 5.Q.8.@X-.r n 7XJ ",
"n X ! lXd.g.) * 7.1Xk V.F O 1.HXF n.p . #.GXk Y.A 4 ) >XT T.7 y _ > z R.{ =XG > l HXF H.^ 1 M.%Xz L.9.X U PXb S.I X G rXc D.L + ",
"y ^ VXA F.C > r.Q.;.*Xb & J xXN (.r e d.gXG L.q X +.t.M.X 5.MXx C.j.3 r.mXz '.H * F <Xk K.A O E bXE $.#.O x MXb `.H r t pXA -X7.",
"f.&.  [ jXF }.h O K tXz n.b X H cX .A.m 5 c rXm.U.9.X *.fXU b.d # k cXD f.O.2 b <XI V.-.: } ^.@.V.W 8 S aXm.L.E $ z iXz M.i.X A ",
"!.T '.w.O G 0XD P.b < H FXx $Xx + G cXJ l.V < `.' . P 1XM G.G # $Xa 7 z PXJ m.-.= A tXb V.M 7 d /.f.y.7.7 z aXd.b.] > %.:XA K.! ",
"> :.6XG C.D y N 1XO.@.] 3 [ 6XA S.( + H nXD S.e.- [ sXA ].G Y U = #.Q.d.Y -.# { uXV M.H , b 7Xn j.] < H lXm.K ( @ O.rXz L.Q O { ",
"] E.o.V.R * x mX8 C.) < A 0Xi.XXo.u b gXx n.o.O F k.a.= 8 HX-.G.t < :.wXZ.w.d.@ z hXx.g.4.= z xX..g.^ % S 8X..J.o.% J MXz }.V $ ",
"J o +.bXN D.D # I GXS m.6., D W.z N.e., b kXx J.+X~ > f.FXt C.R 7 A DX~ x.L 4 b wXC ).( 5 A rX( D.r.< D HXz U.8 * z yXl @.t.# D ",
"X e.~.A :X8 < G /.0 -X~ > m W.Z.:X} > M ,Xd.oX' $ ;.eXD n.n o N.>XW C.! < D./ < z mXP Z.E > +.7X8 _.] X F sXz $X$.< G MXH Z.V 1 ",
"L.g.X d kXo.U.z # A vXJ x.$.4 z R.*.).w.X &.8XD $Xk 5 X.<XM 0.v 8 qXO.$Xp @ d.lXv C.x 8 ..LX{ b.0.< > s lXd.| H < ' :XA `.%.< s ",
"i ^.D `.V X R MXA #Xc < V.K.O.OX! 1 A >Xx.+.G -Xx f z >XQ S.L 1 d W.d.+.O.# i.E.| =. XX Z 3Xz L.k u ) <XN.S.F < 7.wXF oXx , i MX",
"7 ~ nXl >XA 6 c uXE $Xx $ w./.A _.J , V hXn %Xk $ A iXh.C.v 3 m ,XAXA S p | v 1 2.<X9 +XA 6 a !.' m.) O S 8Xq.@.L < 9 GXk L.M.  ",
"zXx oXD X e.7Xx .XA , o.xXk './ 4 0 GXF B.o.>  .!.n  X] o | ,Xo.XXk 1 V 0XG |.E < F. .X S gXQ l.o.< ( mXA S.n < ^ sXP A.o.X X.kX",
"z f b hXL C.{ , S kXG =X8 7 H rXV H.c < I hXOXz < S gX0 $Xz > J <XL _.~ 5 N 2XS (.F o S GXb c.) < x FXA _.c k l Q.-..Xz * ' !.C ",
"t.|.x U./ + b lXE C.k 1 l.;X^ D.0 + x.!.} [.z 6 b U.c 1 =.9Xe.N.k p z iXG &.M < V MX..} Q - x.,XI ].) > h.lX7 *X8.< z MXd.B. .X ",
"A 8 _ R L.A k a !.@XXXV @ q.W.x E.Z o 7.2XD P.m & L vXA h.X.6 x nX7.M.D O %.yX` OX7 O k.MXl K.p O A mXM N.q.1 A E.t..Xn o t.W.| ",
"IXe {.} < [ :XS `.X k uXb m.d.2 4.9XF >.=.O i.,XG I ! 3 f.9Xa =X#.  S ~.A A.k y x rX:.>.R u S 1XV...` < D dXZ *XF X B.1Xp *XD > ",
"x 5XN u.{ O K zXn b.q.X z UXs b.*.w [ >Xz K.z - 4.MXh.*.-.< _ ,XP E.0 & 7.SXY b.b 9 5.3Xg.V.z > d PXD %X{ O y.A # v 0Xg.b.A r u ",
"C.J 3 / lXj.@.{ = D hXN.b.I + b aXD K u.& ! sXR.N < c UXD k.u.> z kXN :XG 7 N fXG n.t 7 W LXx.G.A 7 q ;XA U.b < D FXH y._ 7 z HX",
"4 *.xXz OXX.< A :X^ A.j.< 8 mXQ '.D < ^ /.A -Xc 4 S GXG D.b X J rX$.m.k j 8 4XM |.0 5 z bXJ l.s < G VXH OX#.< A ^.q.Z.A 4 / iXb ",
"B ).-.7 D lXN ].[ < @.&XK (.n < A lXA }.q , x bXW V.[ O L lXa (.J   C.!.v .XD # l mX .|.l 5 F 3X) (.0 7 J %X;.[.C 8 hXo.[.v 7 b ",
"o.> n HXA }.c + m GXz #XG < B fXV l.[ 1 l HXW U.I $ | !. .A.D + n <XU N.B 0 k mXU Z.4.< A D.m < E nXD q.=.+ 7.1XV [.A w c 2X{ >.",
";XY D.k < _ jXf.{.m w x ;XG `.) + q.7Xd.@X0 $Xv < @.:X ._.A 7 ) Q.U 8.-.2 { nXz K +.O :.gXA #XE j A zXo.k...> A 9Xf.i.0 g ` ,XL ",
"S.G O ,.7XD #X<.5 k 5XJ +XV 8 l /.q =X8 u z 1XV ).' < k lXL @X4.@ x 1XL G./ > A mXz *Xg < K jXb t.F.< c GXc s.F % W Q.c.| z > J ",
"xX>.H R % ` 3XD {.C 5 $.FXA Z.{ = D tXI |.E   d.eXi ;Xx o +.!./ K.6.< K :Xm G.e.< @.;XF {.@.O +.2Xz @Xs 1 } 2Xk G.K r r jXh.J.s ",
"+ A kXS v.{ X { dXv ].8 % H 4Xo.'.V 7 W eXj.*X#Xo.. z 1Xh.+.P . u xXx m.@.1 _ ^.z }.O., G >XA >.)., *.eXd.K [ r b $XY L.#.3 k kX",
"D H.7.> } dXI.K x , $.2Xk.C.n X I jXA A.<.X x 1XA `.{ > q IXz jX .3 +.1Xl v.L y -.jXz G.{ , -.4XD N.7 u <.FXd.x.j.+ 8XJ F.D , 7.",
"s dXD L.z > e rXS N.a 5 A rX@.=XR 6 H !.F $XK ZXn < H cXd.B.O.  G 6XA y.e.< e !.W S.=.% ( DXb B.) y | !.d.f.U * M 1X&.&.[ u e 4X",
"4XZ [.G ; *.5XY D.H 3 ^ mXA B.c 0 k lX%.N.^ > D !.w.>.M % x !...OXQ 7 x gXC }.k + { %XJ ..6.O m.eXq '.G % O.>X[ N.-.< gXA B.9.> ",
", v wXD '._ 7 V uXM y.).X *.<XD v.I 2 7.&XD |._ o ^ yXD [.7.7 C iXz +X' < n mXA n.V <  .hXD %Xt < | 7XA oX^ < A zXl [.W 7 k HXA ",
"A pXn AXN < W eXb F.W   P 5X~ I.| . h.!.U M.A # J nXk AXO.< c 7Xz.9.O n FXA C.e.@ b /.A ].w.X K tXx *X:.< 8 VXA (.D , ( jX .k.-.",
"`.k 7 M iXD P.7.< 7.lXd.-Xl 7 w.BXG P.X.7 -.FXA [.[ 8 m 6XD .X8.$ +.%X`.C.Q @ n 4XS #X8 6 _ fXd.%.o.X S pXd.+Xd < W >Xe |.F % x ",
"yX) .Xk O &.MXc =XG % v E.k LX0 # L mXz l.| > M 1Xc >.L , n uXC.F O #.9X8 $Xf.@ d GXD U.c , c 8XC.B.t.> A %Xc U.Q 8 ) IXA H S.X ",
"v iXA OX#.X ( ^.A h.%.% K 3X8 S.M X J 0XZ.j.k # n nXA .XQ O #.W.J l.v 3 d.9Xv B.( > 3XB.B.K , $.6XE B.D # y.W.A y.H > x >X| XX<.",
"& A yXz {.y.X Y eX+.G k r l eXh.U.} X $.;XI J.n u A wXA }.q.X F.9Xk U.J X ' eXd.n.G = 4.;Xx.v.t u D 9XN n.0 $ W.c & A 2X,.Y.W 7 ",
"rXN J.N.* d W.A (.z g ' <Xx '.S @ z 0X>.b.A f b ^./ %XN.$ ` 1XA U.B.X _ eXd..X^ # o.Q.d.%Xc % N.W.6.`.H = _ uXz SXx 4 V }.[ f.9.",
"J l.) X S %X@X[.] , z 0XU S.| @ ] hXn.A 7.y z rX+.N.( O K %Xy...i < ..9XA `.v 2 b mXA `.h 6 A >XA B._ 7 z kXo..X9 < #.< H nXo.N.",
"H.A < ] 9XA .Xn + E lXA |.H < ` 4X] :Xz O O.vX[.#.> x pXz oXO., b lXd.j.6.< A uXh.A.a 7 x jXA i./ > K tXJ $Xn > l HXD F.] O S vX",
"W.y.Z.A X y.iXA H.d.X p.&Xz SXA X F G.q.+XJ > U W.a..XK $ q.T.E 0.B.< 6.eXA y.x < 4.MXl D.D , } dX'.z H X B kX} OXz > ' ^.D *X9 ",
"* A tXA n.Q X D >X) }.A * 5.3Xz U.p 6 F wXl +X7 7 V.#.< J gX[.C.#.X z VXQ oXm.2 #.^.8 `.^ y z iXc T.^ * v.sXd n.G 4 -.kXx |.J = ",
"kXz oX#.2 _ mXD n.x 1 R IXh.| >.% v yXD  X X*.w D PXq p.<.< D 8XD +X3.O A wXk p.d r g.1XS oXQ > S dX} 0.7 w n vX_ H.x < [ SXi L.",
"o.O { nXA F.G @ 7.zXf.I.8 < ` 8XG G.^ & F 7Xv ).e.< z iXD K :.4 $.W.D .Xi.y H ~.D Z.0 @ W dXM K.J 3 M VX&.} h.X L >XK y.#.O O.!.",
"A U.e.$ J dX8 %XS X :.qXh.%X9 1.z JXV M.J X 8.1Xp b.t.> n.B.  x R.+.A.%.X v /.A +X8 <.S ^.z F.3.% N 8XD F.I < -./.$.;Xc   I.T.J ",
".X` 7 D lXz %X<.u D 8X| G.c , l xXm N.` = A /.W @Xy.< z aXG y.] 3 D kXk J.' X f.!.y.K ' , S 7 A bX' #XF > z zXE B.z > q.nXA =Xn ",
"< A lXk +X9.O D Q.@.].c + @.>XH x.x 0 q.( < b CXH g.e.* J FX! b.E > ( 9XA 6Xi : +.>XA L.Q 2 V gX{ g.Q 2 J FX7 K.a.< F pXz *X) > "
};
