/* XPM */
static char *_b070c84d65847bfc5dedd9e76a7dac02Z9YcbLOhikbzi5U[] = {
/* columns rows colors chars-per-pixel */
"64 64 169 2 ",
"   c #000000",
".  c #030B04",
"X  c #04050D",
"o  c #030E09",
"O  c #031107",
"+  c #0D1503",
"@  c #0F1A06",
"#  c #04150A",
"$  c #101603",
"%  c #141C04",
"&  c #060713",
"*  c #060A11",
"=  c #0A181E",
"-  c #172506",
";  c #1A310B",
":  c #072611",
">  c #082711",
",  c #092F14",
"<  c #0A3416",
"1  c #0A3618",
"2  c #0C3E1B",
"3  c #293806",
"4  c #25390A",
"5  c #2A3D09",
"6  c #0B0D25",
"7  c #0B1225",
"8  c #0D112B",
"9  c #0F1D2F",
"0  c #111336",
"q  c #152827",
"w  c #0D3322",
"e  c #153A3B",
"r  c gray13",
"t  c #24342A",
"y  c #184317",
"u  c #124118",
"i  c #2C4A0E",
"p  c #324509",
"a  c #34490A",
"s  c #3A4F08",
"d  c #3B510A",
"f  c #39570E",
"g  c #2A4A10",
"h  c #20541B",
"j  c #315F17",
"k  c #32671A",
"l  c #0E4D22",
"z  c #2B5739",
"x  c #13652C",
"c  c #167432",
"v  c #177A35",
"b  c #53682A",
"n  c #151945",
"m  c #1B1F58",
"M  c #202869",
"N  c #242A74",
"B  c #252D7B",
"V  c #1E5E53",
"C  c #1D664D",
"Z  c #1C6F48",
"A  c #1B7A41",
"S  c #1F7251",
"D  c #217956",
"F  c #214866",
"G  c #24566E",
"H  c #2A5E7F",
"J  c #25676C",
"K  c #277C6D",
"L  c #287C6D",
"P  c #266172",
"I  c #296B77",
"U  c #2A617E",
"Y  c #286B79",
"T  c #287373",
"R  c #5A5A5A",
"E  c #517170",
"W  c #1A863A",
"Q  c #1A883B",
"!  c #258C35",
"~  c #289A3C",
"^  c #339030",
"/  c #3D9D32",
"(  c #2DA03C",
")  c #35A53A",
"_  c #3AA538",
"`  c #3FB73E",
"'  c #4F861A",
"]  c #6D9612",
"[  c #6D9C15",
"{  c #6EA218",
"}  c #77A816",
"|  c #7DAE16",
" . c #71AB1B",
".. c #5BA022",
"X. c #57B02B",
"o. c #43BE3F",
"O. c #68B827",
"+. c #73BB23",
"@. c #5CC836",
"#. c #50C43A",
"$. c #77C324",
"%. c #6ED02F",
"&. c #78D32D",
"*. c #1F8C4A",
"=. c #1E9743",
"-. c #1E9A42",
";. c #218155",
":. c #25935F",
">. c #21A446",
",. c #22AD4B",
"<. c #22B14C",
"1. c #29B449",
"2. c #32B745",
"3. c #34B845",
"4. c #24A155",
"5. c #268666",
"6. c #268B64",
"7. c #3FBB63",
"8. c #43BE40",
"9. c #4EC15D",
"0. c #83B517",
"q. c #85C41C",
"w. c #8EC719",
"e. c #92CA18",
"r. c #93D11B",
"t. c #9BD51A",
"y. c #95DB1F",
"u. c #9BDD1D",
"i. c #9CE21F",
"p. c #A5E61C",
"a. c #A8E61D",
"s. c #90C72B",
"d. c #81D62A",
"f. c #84D828",
"g. c #96DE21",
"h. c #96E022",
"j. c #9AE120",
"k. c #A8E63D",
"l. c #B2E93A",
"z. c #8DDA47",
"x. c #292F86",
"c. c #293284",
"v. c #2B348A",
"b. c #2D3594",
"n. c #2E3C95",
"m. c #2F3699",
"M. c #2F3898",
"N. c #313B95",
"B. c #2D468F",
"V. c #2C4C8B",
"C. c #34448C",
"Z. c #3B4889",
"A. c #2B5586",
"S. c #2B5B82",
"D. c #2C5388",
"F. c #305286",
"G. c #2D4491",
"H. c #A5A5A5",
"J. c gray71",
"K. c #B7E6BD",
"L. c #BDE8BC",
"P. c #CDEEB6",
"I. c #C1EAB9",
"U. c #DBF4B1",
"Y. c #E0F6AF",
"T. c #B1E3C0",
"R. c #BFE8CB",
"E. c gray87",
"W. c white",
/* pixels */
"m.m.m.m.m.m.m.m.m.m.m.m.m.m.m.m.G.G.m.5.m.G.Y A.5.*.x.4.w :.,.*.=.D 4.w 4.4.G B.:.A.5.4.b.B.A.m.m.m.m.m.m.m.m.m.m.m.m.m.m.m.m.m.",
"m.m.m.m.m.m.m.m.m.m.m.m.m.m.B m.m.5.m.m.m.m.5.4.m.m.2 5.4.<.<.<.<.2 ,.<.<.<.<.<.<.,.F I m.m.m.m.m.m.m.m.m.m.m.m.m.m.m.m.m.m.m.m.",
"m.m.m.m.m.m.m.m.m.m.m.m.m.B N m.;.m.m.<.m.4.4.G.<.2 5.,.  <.2 <.1 <.<.  <.2 <.-.W 4.<.-.6.4.G.A.m.m.m.m.m.m.m.m.m.m.m.m.m.m.m.m.",
"m.m.m.m.m.m.m.m.m.m.m.m.x.x.b.b.m.m.<.<.<.m.5.<.<.<.,.      <.2 <.<.      <.2 W W W O W <.C 4.m.m.m.m.m.m.m.m.m.m.m.m.m.m.m.m.m.",
"m.m.m.m.m.m.m.m.m.m.m.m.m.b.m.m.M <.<.<.<.<.<.<.<.<.          2 <.          2 -.o c <.2 <.,.-.U n.m.m.m.m.m.m.m.m.m.m.m.m.m.m.m.",
"m.m.m.m.m.m.m.m.m.m.n.n.N m.m.  #   <.<.<.V.A.,.<.-.,.      <.,.-.<.      <.-.o x O   # # Z x <.<.4.:.S.m.m.m.m.m.m.m.m.m.m.m.m.",
"m.m.m.m.m.m.m.b.m.m.G.m.n.<.  c       <.3.<.=.e.2 <.! ,.  <.-.2 ,.<.<.  <.-.<.2 .       <.  <.-.<.<.<.G.U <.G.m.m.m.m.m.m.m.m.m.",
"m.m.m.m.m.m.x.m.b.m.m.m.<.        c Q <.3.r.8.<.,.>.  1 < ,.<.<.<.2 2 < ,.,.2 #             8 W <.<.<.<.<.m.m.m.n.m.m.m.m.m.m.m.",
"m.m.m.m.m.B m n.o B.G.W # <.      <.W <.p.v ,.p.l $.<.<.-.<.2 u 1.1.<.~ u.2 2 W             . <.<.<.<.<.<.-.G.m.m.m.m.m.m.m.m.m.",
"m.m.m.m.m.N X :.O U U , <.<.#   O -.<.&.<.7.a.a.p.o h.2 2 <.<.<.&.[ t.X.3 e.%               # <.<.<.<.<.-.-.<.v.n.m.m.m.m.m.m.m.",
"m.m.m.m.m.X X <.  G.# W W 2 2 < W <.# t <.a.a.a.p.p.h.# # <.<.&.&.h.a.a.a.] 0..           -.<.<.<.3.<.<.<.u <.<.<.B.n.m.m.m.m.m.",
"m.m.m.m.m.* *       # # W <.<.-.<.2 z 7.p.Y.a.a.l.&.<.<.<.<.<.<.<.a.a.a.a.d % % e.      O O &.3.<.3.<.<.2 <.<.  <.2 <.b.V.m.m.m.",
"m.m.m.m.m.&             W <.<.<.<.<.<.U.<.a.a.a.<.o.<.<.<.<.<.<.a.a.a.a.a.p.a.d .     . &.2 u 3.<.&.<.<.3.<.      <.u U m.m.m.m.",
"m.m.m.m.m.8             -.<.<.<.<.<.P.<.<.W.a.U.3.7.<.<.<.<.<.3.; a.a.a.a.a.a.a.a.0.W 4 .   % &.&.<.3.<.<.          u S m.m.m.m.",
"m.m.m.m.x.W           . <.<.<.<.<.<.<.<.W.W.W.8.K.h.h.<.<.<.&.&.h.<.p.p.a.a.a.a.    # -.-.a.a.a.<.p.<.&.-.3.      / G.;.M.m.m.m.",
"m.m.m.m.M W           2 <.<.<.<.<.<.<.W.W.W.W.W.P.&.<.<.<.<.<.<.O.p.a.p.g.a.a.3 3     <.p.a.a.a.p.p.p.u &.<.<.3 Q x G.# m.m.m.m.",
"m.m.m.m.# -.#       O # <.<.<.<.<.<.7.<.W.W.W.<.<.<.<.<.<.<.-.<.<.<.; j.a.p.p.e.    2 - <.a.a.a.l.a.a.a.&.2 k j ) e.<.b.n.m.m.m.",
"m.m.m.U u <.# #   <.O # <.<.<.<.<.T.<.<.<.W.<.7.<.<.<.<.<.-.-.<.2 <.<.O O i 3 e.p.e.] # 2 <.l.<.p.a.a.<.<.<.<.g.; #  .v.:.m.m.m.",
"m.m.m.<.<.<.2 2 : <.# i <.<.<.<.<.<.<.T.T.R.-.<.<.<.<.<.<.<.2 W Q <.<.2 <.O O            .k.z.<.T.a.<.9.<.<.h.<. .p.  Z.r m.m.m.",
"m.m.S.<.<.<.<.<.~ o.u h <.<.<.<.<.<.<.<.-.7.<.T.T.<.<.<.<., W <.  <.2 <.O 1 1 :       <.<.<.K.&.h.h.<.<.<.<.<.&.p.p.a.C.s.x.m.m.",
"m.M.G.<.<.<.<.<.9.#.<.y.<.<.3.<.<.<.<.-.-.<.2 <.<.-.<.<.W x x       ! , -.1 # . o   < -.<.T.<.<.W.3.T.&.z.<.<.p.a.a.a.E e.Z.m.m.",
"m.n.G.<.<.Q -.<.3.j.<.&.<.<.3.<.<.<.<.<.2 <.<.<.<.<.<.<.<.O           , <.2 <.2 , < # # <.<.<.W.W.W.<.T.<.<.8.# a.a.a.a.a.C.S.F.",
"V.S.U W -.<.<.<.h.&.<.a.<.j.<.#.<.<.<.2 <.<.  <.2 <.-.<.# o o       % x , 3.<.  <.1 <.1 2 <.W.W.W.W.W.T.<.h.<.h <.a.a.a.<.-.D.m.",
"M.n.Q c -.# 2 <.$.-.a.a.a.&.h.3.<.<.<.<.<.      <.2 <.<.u O           O W <.      <.u <.<.7.<.W.W.W.<.<.<.<.&.h.j.u.a.> 3.B m.m.",
"M.G.<.# 2 <.<.<.<.a.a.a.a.a.i.<.<.<.<.<.          u <.<.,.              ..          2 <.T.<.<.<.W.<.7.<.` ` <.<.&.f.d.g.j.e b.m.",
"M.A.# 2 <.    # ' a.a.a.a.p.f.<.<.<.<.-.<.      <.<.<.<.W <             Q &.      <.<.<.<.<.T.T.T.<.#.3.o.<.<.<.<.<.3.<.E m.m.m.",
"m.4.<.<.      e.f u.a.p.p.o.o.<.<.<.2 <.<.<.. <.-.<.<.# # Q             a.&.<.  <.-.<.<.<.<.7.<.7.#.I.L.h.%.<.o.3.<.<.<.<.S.n.m.",
"n.<.<.        ] t.p.i.a.<.i.o.o.<.<.<.<.u u < <.<.<.<.<.# O           d <.2 2 < <.<.<.<.7.<.<.<.<.#.i.&.i.<.<.9.<.<.<.<.S.G.m.m.",
"G.<.Q -.        i.p.a.a.a.p.p.@.<.<.<.#.<.9.Q <.2 2 <.<.# -.@       . # 3.<.<.-.<.2 2 7.7.<.T.<.#.k.i.h.a.a.j.&.8.3.<.<.<.5.m.m.",
"S.# u <.<.    W y.p.a.a.a.p.i.#.3.8.3.#.@.&.` <.3.<.<.<.2 <.# #   &.$ # <.<.<.<.<.<.<.<.T.<.<.-.<.i.<.a.a.a.a.h.&.<.<.<.n.G.m.m.",
"B.<.<.# .   > <.o.p.a.p.a.a.a.<.@.8.%.p.#.} _ ` 8.<.<.<.<.<.2 2 > <.# # &.&.<.<.<.<.<.T.<.-.W.<.U.<.l.a.a.a.a.p.&.1.<.<.U :.m.m.",
"B.<.<.-.c W > r.5 p.a.a.a.a.i.i.<.p.h.} e.p...$.^ ) <.<.<.<.<.<.-.<.1 2 <.<.<.<.<.<.<.<.-.W.W.W.<.L.e.a.a.a.a.h.Q <.<.<.G.M.m.m.",
"U <.,.W : <.O h.8.g.a.a.a.a.a.h.p.o.0.] ] % 3 e..._ 3.<.<.<.<.<.-.<.8.<.<.<.<.<.<.<.<.<.W.W.W.W.W.Y.p.a.a.a.u.3.W <.<.<.<.:.n.m.",
"<.<.<.< o <.  h.2 u.g.a.a.a.a.a.&.p.a.$ 3 ] $ p % < ( W -.<.<.-._ <.2 8.3._ 3.<.<.<.<.7.2 W.W.W.j.2 p.e.a.} o.# -.W <.<.C.U m.m.",
"<.<.<.O .       e.r.u.i.a.a.p.<.,.p.% d %     . d  .-.3.<.<.<.8.y 8.j.o.3.8.<.3.<.<.T.<.<.3.W.  r <.a a.t.d e.u.[ c ,.<.<.5.B.m.",
"<.<.<.O           ] y.j.j.a.h.3.8.&.a.%             + 1 W -.<.2 i.#.  i.i j.+.3.8.3.<.3.T.H.J.      a t.3   e.e.. =.<.<.n.<.m.m.",
"<.<.<.O             Q &.d.d.h.l.<.i.a.                # 2 <.<.h.<.      p.u 8.&.<.<.#.2.-.&.r   H.I.Q s   e.e.    2 <.<.-.5.n.m.",
"<.<.2 ,             -.<.<.9.<.&.a.p.| e.                2 <.<.<.          d a.j.&.8.2.g <.<.<.  8.d Q e.    3   # <.<.-.A.K <.G.",
"<.<.# O           . Q <.7.7.<.T.h.# b | e.            <.<.<.<.-.a.      a.a.a.a.g.h.&.3.<.d u g 2.t.-.[     % W #   <.< :.n.U m.",
"<.<.# W             <.<.<.T.<.<.<.<.% .             ^ -.<.<.2 8.<.a.  p.e.a.a.a.a.&.&.<.a.p.a.-.j.5 2 p.O e.# 5       <.v.G.:.m.",
"<.<.# -.            <.<.T.<.<.W.<.K.<.7.@ .       $ &.#.,.<.h.<.y u p p.a.a.a.a.a.a.&.a.a.a.a.a.g.<.a.a.a.] h.%         v.G.m.m.",
"<.<.2 Q #       # # <.<.<.<.W.W.W.<.T.<.g.3.0.e.$ . . . y o.8.g.p.p.w.p.d d a.a.p.<.#.#.a.a.a.<.<.a.a.a.a.a.u.          B.m.m.m.",
"5.<.# <.2 2   <.O # <.<.<.W.W.W.W.W.K.<.,.a.a.a.a.a.p.@.@.<.7.<.<.h.p.p.p.p.p.a.<.f.` <.<.a.<.3.8.a.a.a.a.a.]         # A.m.m.m.",
":.K <.<.# # o <.2 2 <.<.7.<.W.W.W.<.<.<.3.a.a.a.a.p.p.p.l.g.i.o.8.8.,.8.p.a.p.a.a.i.h.f.d.d.<.h.3.<.a.a.a.3         # G.:.m.m.m.",
"<.U <.<.<.<.W <.# # <.T.<.<.<.W.<.7.<.&.8.h.a.a.a.a.a.l.k.<.T.<.<.7.<.&.h.<.a.a.p.p.i.j.<.3.<.h.&.g.y.a.. 2.      -.Q v.e m.m.m.",
"n.T T <.<.<.<.<.<.<.-.<.<.T.T.R.<.<.<.g.,.f.p.a.a.a.a.a.Y.p.a.q.j.8.8.<.<.p.a.a.a.a.p.h.<.<.<.<.<.+.{ 0.# h.e.  o Q u v.L m.m.m.",
"m.n.U <.<.<.<.<.-.<.W <.<.<.<.7.<.T.K.<.h.i.a.a.a.p.a.Y.a.e.W.p.U.h.7.<.a.a.a.a.a.p.h.<.<.<.<.<.x > # ;   [ ] o c <.# M n.n.m.m.",
"m.m.T T <.<.<.-.c <.2 <.<.-.<.<.<.<.<.<.h.o.h.a.a.a.a.a.e.E.W.R p.U.-.j.j.a.a.a.a.#.8.<.<.<.<.Q x   #       O , Q # # L m.N.m.m.",
"m.m.H T :.<.<.W < <.# <.<.W <.<.<.<.<.<.h.<.h.h.p.8.a.a.W.R W.W.W.T.&.h.<.g.a.a.j.8.<.<.<.<.<.<.  #           . ,.5.:.m.G.m.m.m.",
"m.m.m.5.I :.<.2 # <.  <.2 <.W <.<.<.<.<.<.<.g.p.a.h.a.l.d W.W.  8.2 <.-.&.p.p.i.o.h.p.h.<.<.<.# # -.          O 5.K n.G.S.m.m.m.",
"m.m.m.m.I :.4.# <.      O 2 x <.<.<.<.<.<.<.<.<.9.&.Y.a.p.p.      <.2 <.<.<.3.8.&.i.g.-.<.<.<.<.2             5.:.n.U U m.m.m.m.",
"m.m.m.m.m.T Y <.          . 2 <.<.-.<.<.<.<.<.<.<.<.<.3.L.          2 <.<.<.<.<.Q c <.<.<.<.<.<.            o :.n.G.<.m.m.m.m.m.",
"m.m.m.m.m.n.<.G & 6       # # <.<.Q <.<.<.<.<.<.<.<.<.<.-.<.      T.<.<.<.<.<.x c -.# 2 <.W -.O Q         A w 0 S.<.m.m.m.m.m.m.",
"m.m.m.m.m.m.n F 4.  6 6 O <.  <.2 <.-.<.<.<.<.<.<.<.<.u <.<.<.  <.-.<.<.<.<.Q W # . <.<.W <.# # <.#     x C & # U m.m.m.m.m.m.m.",
"m.m.m.m.m.m.n n.B b.  = G       # w Q <.<.<.<.<.<.<.:.:.<.u 2 1 <.<.<.<.<.<.<.  2 <.    # 2 Q -.#     o T * * G.n.m.m.m.m.m.m.m.",
"m.m.m.m.m.m.b.m.n 9 c.n.  6 6     . <.:.:.4.5.4.S 6.:.4.:.4.4.;.4.2 2 4.4.:.# <.<.        o w 5.:.5.V C #   * m.m.m.m.m.m.m.m.m.",
"m.m.m.m.m.m.m.m.m.m.v.m.& 6       * 5.5.Y 4.:.T U 5.G.G.:.Y 5.:.:.:.K J 4.4.4.4.            q 5.G.V.T G.m.n.m.m.m.m.m.m.m.m.m.m.",
"m.m.m.m.m.m.m.m.m.m.m.m.m.c.6 6 c.N.Y N.n.V.m.V.m.m.m.V.N.V.V.G.V.P Y V.A.G.5.& 6         n.n.m.V.m.m.n.V.m.m.m.m.m.m.m.m.m.m.m.",
"m.m.m.m.m.m.m.m.m.m.m.m.m.v.v.m.N m.m.m.m.G.n.m.m.S.m.m.m.m.N.V.v.n.m.b.D.B.8 9         F c.B.G.m.m.m.m.m.m.m.m.m.m.m.m.m.m.m.m.",
"m.m.m.m.m.m.m.m.m.m.m.m.m.m.x.m.0 0 m.m.m.m.m.m.m.m.m.m.m.m.m.m.m.m.m.m.m.m.n.m.7 6   6 b.m.m.m.m.m.m.m.m.m.m.m.m.m.m.m.m.m.m.m.",
"m.m.m.m.m.m.m.m.m.m.m.m.m.m.N m.& & m.m.m.m.m.m.m.m.m.m.m.m.m.m.m.m.m.m.m.m.m.B x.& N x.& X 0 m.m.m.m.m.m.m.m.m.m.m.m.m.m.m.m.m.",
"n.m.m.m.m.m.m.m.m.m.m.m.m.m.m.m.m.m.m.m.m.m.m.m.m.m.m.m.m.m.m.m.m.m.m.m.m.m.m.m.m.N m.& & m.m.m.m.m.m.m.m.m.m.m.m.m.m.m.m.m.m.m.",
"n.n.m.m.m.m.m.m.m.m.m.m.m.m.m.m.m.m.m.m.m.m.m.m.m.m.m.m.m.m.m.m.m.m.m.m.m.m.m.m.m.m.m.m.m.m.m.m.m.m.m.m.m.m.m.m.m.m.m.M.m.m.m.m.",
"G.m.m.m.m.m.m.m.m.m.m.m.m.m.m.m.m.m.m.m.m.m.m.m.m.m.m.m.m.m.m.m.m.m.m.m.m.m.m.m.m.m.m.m.m.m.m.m.m.m.m.m.M.m.m.m.m.m.m.m.m.m.m.m."
};
