/* XPM */
static char *b8e75d66d5d042fd9a67b9d86c1674a0LS2eynpXKAi7rJpR[] = {
/* columns rows colors chars-per-pixel */
"64 64 14 1 ",
"  c #2F3698",
". c #2F3699",
"X c #2947A4",
"o c #2456AE",
"O c #1F63B6",
"+ c #1189D0",
"@ c #0E92D5",
"# c #0A9BDC",
"$ c #06A7E3",
"% c #05A9E5",
"& c #04ADE7",
"* c #02B0EA",
"= c #00B7EE",
"- c #00B7EF",
/* pixels */
"................................................................",
"...........................................X....................",
".........................................X......................",
"..............X.........................XX.+..X.................",
"............X............................+......................",
"...........XX.+..X......................+..-.+.X................",
"............+.............................---.+.................",
"...........+..-.+.X......................-----+.................",
".............---.+......................X.---...................",
"............-----+.....................+...-.X..................",
"...........X.---.........................++@....................",
"..........+...-.X..........................X.++.................",
"............++@...........o.....................................",
"..............X.++......o.X.....................................",
".......................oO.$..o..................................",
".......................X%.+..X..................................",
".......................$+.-.$.o.................................",
".......................+.---+$X.................................",
"........................-----*..................................",
".......................o-----+..................................",
"......................$X.---o..............X....................",
"......................+.$$-.X............X......................",
"........................++#.$$..........XX.+..X.................",
"..........................X.++...........+......................",
"........................................+..-.+.X................",
"..........................................---.+.................",
".........................................-----+.................",
"........................................X.---...................",
".......................................+...-.X..................",
".........................................++@....................",
"...........................................X.++.................",
"................................................................",
"................................................................",
"................................................................",
"................................................................",
".................X..............................................",
"...............X................................................",
"..............XX.+..X........................X..................",
"...............+...........................X....................",
"..............+..-.+.X....................XX.+..X...............",
"................---.+......................+....................",
"...............-----+.....................+..-.+.X..............",
"..............X.---.........................---.+...............",
".............+...-.X.......................-----+...............",
"...............++@.........Xo.............X.---.................",
".................X.++....Xo..............+...-.X................",
"........................XOo+$.Xo...........++@..................",
".........................+$...  .............X.++...............",
"........................+$.--+$Xo...............................",
"..........................----+$................................",
".........................------$................................",
"........................Xo----  ................................",
".......................+$..--Xo ................................",
".........................+**&.  ................................",
"...........................Xo+*%................................",
"................................................................",
"................................................................",
"................................................................",
"................................................................",
"................................................................",
"................................................................",
"................................................................",
"................................................................",
"................................................................"
};
