/* XPM */
static char *_db613080fe244eb986400465ccf2fb0h6BOagRY410r2HOD[] = {
/* columns rows colors chars-per-pixel */
"64 64 221 2 ",
"   c #000000",
".  c #020B05",
"X  c #0A0A09",
"o  c #031107",
"O  c #04160A",
"+  c #051C0C",
"@  c #161E03",
"#  c #1A1D1A",
"$  c #07230F",
"%  c #172506",
"&  c #19310C",
"*  c #072511",
"=  c #072B13",
"-  c #092E14",
";  c #1C2118",
":  c #1D281B",
">  c #0A3517",
",  c #0A3618",
"<  c #0C3E1B",
"1  c #183B17",
"2  c #293806",
"3  c #2A3D08",
"4  c #2E3C19",
"5  c #1B3524",
"6  c #212121",
"7  c #253328",
"8  c #343E2D",
"9  c #3E3E3E",
"0  c #0D431D",
"q  c #174417",
"w  c #2B450B",
"e  c #2B490E",
"r  c #3C590D",
"t  c #20541B",
"y  c #32671A",
"u  c #0E4C21",
"i  c #184323",
"p  c #125926",
"a  c #3A4438",
"s  c #305335",
"d  c #14652C",
"f  c #156F30",
"g  c #167331",
"h  c #177A34",
"j  c #1A7937",
"k  c #197E36",
"l  c #2E743E",
"z  c #48630A",
"x  c #537711",
"c  c #445338",
"v  c #546D27",
"b  c #3F4F43",
"n  c #397446",
"m  c #464E49",
"M  c #4D5746",
"N  c #565756",
"B  c #575858",
"V  c #5A5A5A",
"C  c #5A6A4D",
"Z  c #506752",
"A  c #6A6C6B",
"S  c #6F7A73",
"D  c #1A863A",
"F  c #1B8A3C",
"G  c #1C913E",
"H  c #33882B",
"J  c #238837",
"K  c #289539",
"L  c #3C9C32",
"P  c #2EA63E",
"I  c #36A73B",
"U  c #6C9512",
"Y  c #6A9B16",
"T  c #6EA91B",
"R  c #77A917",
"E  c #78B81E",
"W  c #46952E",
"Q  c #56AD2A",
"!  c #40AD38",
"~  c #45BC3E",
"^  c #4BBC3A",
"/  c #70AF29",
"(  c #75BE26",
")  c #7FC31F",
"_  c #4DC13C",
"`  c #51C33B",
"'  c #5AC83A",
"]  c #68C22C",
"[  c #76C425",
"{  c #78C827",
"}  c #78D22C",
"|  c #79D42D",
" . c #68CC33",
".. c #1D9641",
"X. c #1E9B42",
"o. c #33934F",
"O. c #1FA246",
"+. c #1FA548",
"@. c #22A445",
"#. c #2AAB45",
"$. c #22AC4A",
"%. c #2DB447",
"&. c #22B14C",
"*. c #2AB34A",
"=. c #32B646",
"-. c #34B845",
";. c #39BA46",
":. c #36A957",
">. c #2CB453",
",. c #34B65A",
"<. c #35B858",
"1. c #3ABA5A",
"2. c #3EBA62",
"3. c #478E57",
"4. c #43BE40",
"5. c #47A95B",
"6. c #49B25F",
"7. c #4F9664",
"8. c #6C8962",
"9. c #4EB466",
"0. c #56B572",
"q. c #6BB171",
"w. c #55C44C",
"e. c #4FC350",
"r. c #4DC366",
"t. c #53C56C",
"y. c #57C471",
"u. c #58C478",
"i. c #6EC76A",
"p. c #64C877",
"a. c #85BA16",
"s. c #85C91F",
"d. c #92CB18",
"f. c #95D31B",
"g. c #9BD519",
"h. c #9BDC1D",
"j. c #A6E51C",
"k. c #A8E61D",
"l. c #80C721",
"z. c #85CD21",
"x. c #87D826",
"c. c #86D929",
"v. c #96DF23",
"b. c #9ADD23",
"n. c #98D23D",
"m. c #96E022",
"M. c #9BE122",
"N. c #9AE230",
"B. c #AAE829",
"V. c #ADE930",
"C. c #A6E43C",
"Z. c #B3E93A",
"A. c #98B86A",
"S. c #88A179",
"D. c #9ED85B",
"F. c #B2E84F",
"G. c #C4F170",
"H. c #78A786",
"J. c #69C684",
"K. c #7ECF85",
"L. c #70CC8B",
"P. c #7BCB8D",
"I. c #92B186",
"U. c #9CBA98",
"Y. c #A5A5A5",
"T. c #A6ABA7",
"R. c #ABB9AD",
"E. c #B6B8B6",
"W. c #8BD292",
"Q. c #ABCE90",
"!. c #A5D599",
"~. c #9BE38D",
"^. c #AAE691",
"/. c #A2E59A",
"(. c #9BCEAA",
"). c #B9DBA5",
"_. c #ACCAB5",
"`. c #B3CDB7",
"'. c #B5DBB8",
"]. c #A8E7A1",
"[. c #BCE9AB",
"{. c #BCF0AE",
"}. c #B3E3B9",
"|. c #C4F188",
" X c #C9F494",
".X c #C2C8BE",
"XX c #C5E4AC",
"oX c #CEF7A6",
"OX c #C9EEB5",
"+X c #CCF3B9",
"@X c #D1F5B6",
"#X c #D3F9BC",
"$X c #E2F7B4",
"%X c #B9D6C2",
"&X c #B2E3C1",
"*X c #BBE5C8",
"=X c #C6C7C6",
"-X c #C9D6CB",
";X c #D5DED0",
":X c #DEDEDE",
">X c #C4EACE",
",X c #D8F4C9",
"<X c #C6EAD2",
"1X c #C8EBD4",
"2X c #D7E5DA",
"3X c #E6F2DF",
"4X c #DFE2E0",
"5X c #DEF3E3",
"6X c #E5E6E5",
"7X c #E3ECE5",
"8X c #E8EAE7",
"9X c #EBECEC",
"0X c #E3F5E8",
"qX c #E9F4E8",
"wX c #F2FAE7",
"eX c #EDF8F0",
"rX c #F4F5F4",
"tX c #F4FBF6",
"yX c #F9FDF5",
"uX c #F7FBF9",
"iX c #FFFFFF",
/* pixels */
"&.$.(.U.D :XiXiXiXiXiX:XiXiXiXiXiXiXiXiXtXD X.&.&.&.&.- &.b 6 iXiXiXiX'.3X#XK.{.,XtXr.*X&.&.0.F &.&.&.  iXiXiXiXiXuXiX$ A       ",
"u.(.H.9X2XiXiXiXiXiXiXiXiXiXiXiXiXiXiXiX0X&.&.&.&.&.O &.7XY.  6 iXiXiXiXp.wX#X#XtX*X&.*X&.0X7.u.< &.  iXiXiXiXiXiXiXiX4X9 9     ",
"P.0.iXuXn iXiXiXiXiXiXiXiXiXiXiXiXiXuXZ > O - X.D X.&.O     :XuXiXiXiXiXiXwXu.#X*X].0X2.iX5X%Xb &.X.qX  iXiXiXiXiXiXiXiX  A     ",
"0XiX:X_.iXiXiXiXiXiXiXiXiXiXiXuX%XiX  =XR.D &.4.-.&.&.X.&.    R.6XiXiXiXtX&.2.&.&X<.0X2.L.iX*Xu.: _.a 4X:XiXiXiXiXiXiX:XiXN 9   ",
"4X3.iXiXiXiXiXiXiX8XiXiXiXiX- 8X6XrXo 3XE.z v w > D 0 &.&.&.Y.2XeXiXiXiX0XtXu.u.<.2.L.&.iX2.tXb c   I.E.rXuX8XiXiXiXiXiXiX6X9   ",
"g iXiXiXiXiXiXiXiXY.uXiXiXiX9 rX7X,X2 wX3Xx e d.Y < 4.-.0 0 - ~.iXiXiXiXiXtX0X0X&.L.&.&.&.2.>.s S.a ).l '.p.8XiXiXiXiXiXiXuX9   ",
"iXiXiXiXiXiXiX9   Y.rXrXiXiXiX0XuXA.z G.g.k.h.h.2 y e.*.&.&.O.r.iXiXiXiXiXiX0XyX>X&.&.&.&.&.&.6.[.C  X{.~.5X-XeXiXiXiXiXiXuX6   ",
"iXiXiXiXiXiX9 9       iXiXiXiXiX;X  V.B.k.k.).k.k.m.} I P &.}.0.u.iXiXiXiXr.6.7X:.&.&.&.&.&.&.0.v #XoX#X{.5XqX9XiXiXiXiXiXrX    ",
"iXiXiXiXiXrX  :X:X  s ..iXiXiX2   V.V.V.k.k.k.k.k.k.| x.&.I 5X7X'.}.iXiXu.7.F ,.D <X$.&.&.&.4X2 |.#XV. X,X XeX5XiXiXiXiXiXY.9 g ",
"iXiXiXrX9 9 :XuX:X'.D < & iX; / C #X^.m.k.k.k.k.x.j.m. .H W L T qXuXiXeX_._.< X.$.,.:.&.+.'.-Xe V. XF.oX,X,X_.-XiXiXiXiXiX:X6 D ",
"iXiXiXB :XuX4X. D &.o T.`.,X~ B.s /.k.j.k.k.k.c.| m.-.f H ( x d.d.d q.C 0XyX4X&.2 X.$.$.j :.1.b.s.|.j.B.{ wX5X9XeX9XiX8X9X6X6Xo ",
"iXiXrX:X:X  o   O   < P f.C.U @X1XC.<.` j.c.m.m.%.4.G G Y ) z.j.m.Y + r g F L o   2   - O O.>.;.~.j.j.E W.wXi 1XiX_.uXiXiX6XE.m ",
"iXiXY.$   X.      o 0 Q j.~ k.k.-.` B.B.k.j.j.-._ P &.. %.m.x.j.j.d._ w w 3 2 2 d.2   y o f $.{.k.j.k.M.0 c.L.5XiX7XiXiXiXrXiX9 ",
"iXiX0Xo             3 x.v.k.k.-.` k.&.&.-.` c._ G &.&.&.&.*.m.m.j.` j.d.&.  ^ z O d.q t L %., G.x.k.j.q 4.&X  6.5 iXW.iXiXiXiXiX",
". 0X:X  >           w j.-.k.k.k.k.&.&.&.&.<._ j.&.&.&.&.&.%.` j.j.j.j.&.&.&.e _ k.f.s.%.Q h d.q &.j.j.` C.      L.i 1XiXiXiXiXiX",
", rX4Xs             v.j.j.k.k.k.&.&.&.&.&.&.F ] &.&.&.&.&.&.` j.j.j.*.&.&.&.&.` k.k.#.` 1 $.[ %.g.x.j.$X          0 iX1XiXiXiXiX",
"iXT.0Xo           o m.m.k.v.j.x.m.&.&.&.&.; *.Q &.&.&.&.&.E U j.k.m.w &.&.&.k.k.k.j.` j.&.&.&._ =.T j.( &.      &.2.6.5XiXiXiXiX",
"iXiXY.D -       D < T m.k.k.-.` j.n.&.&.= !.e.&.-.*.&.&.x.z.j.j.` U | &.&.2 ( k.k.k.k.&.&.&.&.&.*.M.< v.k.&.  &.X.&.>.iXiX8XiX  ",
"iX      o     D D O z.m.j.` k.k.=.#.&.J   S.-.` ` &.%.&.I +.h.f.g.M.` _ I *.l.k.k.k.c.&.&.&.&.&.L n.w.C.0 0 , &.&.&.L.uXiXiXuX  ",
"  6       . . &.+ f.4.&.j.k.k.e U U = O X.$.-.j.&.&.&.w.*.&.g . w . m.m.&.f.^ ` k.-.v.k.&.&.&.q   ).F.;.e.w.X.&.< < g 9 9 :XuX:X",
"          D D &.+ d.&.m.f.&.w J d.s.  . * d.R &.&.&.&.&.#.t o g       &.  d.@ k.k.` k.-.=.$.  O     #Xy.oX<.-.&.y.G ,   o       ",
"  Y.Y.  . $.&.&.F K d f.&.&.&.m.^ d a     U { &.&.&.&.&.^ W i ; ; 3.f D   U @ d.k.k.k.^ ^ G   #.#.; #X#X Xw.y._ {.&.@.        6 ",
"        O &.D g D g g &.&.&.&.&._ s a   O #.T x.&.&.&.c.b.W ; 8       O   ( g R U k.  d.d.O   g 5.8 8 #X XB.#Xx.&.&.J     6   6 ",
"    9 o < * p g o q + . &.&.&.C C l ).O   ^ % &.&.&.&.-.1.A.i.U.I.).; ; 8 ;   U U R   U U       ).).S.I.V.V.t.j.&.M.w 2 6 9   =X",
"    2.. . D O % + J > $.  &.8 8.XX).).  8 R 2 *._ &.&.&.&.=.q.].    .   ; ; o S.  @ ; U U   .       {./.N.B.k.k.k.h.g.2 6 =X6 Y.",
"  4XM b o   % r   T   D j k ; @X[.S.#X  ).d.c j.&.&.&.&.&.&.D.].#X#XS.).; U.  . .             - + = @.+ M.j.k.k.k.j.k.2 =X=X9 iX",
"iXY.7X6   &.~ E 2 {   = w O ).y.D #X#X#X).F.8 } &.&.&.&.&.%.&.,X{.#X#XS.@X  O #X  S.  ;         , < h G ~ k.c.v.k.j.j.4 =XrXiXiX",
"iXiXrXb D &.E s.q ;.O #.w @ q.  #X#X#X#X#X+X%.} %.&.&.&.&.&.<.t.#X#X#X#X{.&.#X#X#X  S.        . o X.g d.h.k.k.k.k.j.M.C iXiXiXiX",
"iXiXrX9 D 2 f.^ x.%.m.-.I 2 = {.#X#X#X#X#X).*.U &.*.&.&.&.&.&.r.#X#X#XO.&.#X#X#X#X#XS.          X.g   &.&.;._ c.b.j.j.`.9XiXiXiX",
"iXiXiX9   @ ` k.-.&.` &.h.@.XX].#X#X#X#XI.u B.I *.&.&.&.&.&.&.~.].].<.9.<.&.#X#X#X            < =   &.&.&.&.=.` j.j.B.uX8XiXiXiX",
"iXiXuX6 &.f.a.k.$.&.&.&.*.<.*.= {.#X#X8 a J U g._ &.&.&.&.&.&.^./.].< q.&.$.&.#X&.: @       O O o &.&.&.&.&.*.^ j.j.j.rXiXiXiXiX",
"iXiXiX< &.f.g.*.&.&.&.&.$.&.$.y.+X#XOX; U.).Y &.| &.&.&.&.&.&.>.>.>.*.r.>.<.W.K.-.&.&.- - .   . p = &.&.&.&.b.j.j.j.j.iXiXiXiXiX",
"iXiX4XO O j.h.j.&.&.&.&.&.&.&.5.S.Q.7 ).#X).&.*.m.-.&.&.&.%.&.&.$.J O.@.D D &.e.K W.F.&.&.P &.G D g . &.&.[ v.k.k.R XXZ iXiXiXiX",
"iX8X4X+ X._ k.=.x.&.&.&.&.&.F     #   S.8 &.m.K -.-.-.&.-.&.&.&.&.&.&.&.&.&.+.k  .F D +.&.$.&.< h G +.&.h ! R b.  f.wXc iXiXiXiX",
"  7X4X+ m.q k.*.-.&.=.&.&.< X.O       o O &.f.| m._ _ ;.H #.&.&.&.&.&.&.&.&.$.*.h O k.J [ &.%.O = . &.&.&.=.$._   U wX9 :XiXiXiX",
"O 4X4X&.T _ k.k.j.-.*.&.*.O.&.O O   $.s   &.< &.a.M.j.| m.&.&.&.&.&.&.&.&.&.&.&.k k.k.k.&. .&.0 o &.&.&.&.&.^ @   R 3Xo :X:XiX, ",
"X.&X&X&.m.y U k.j.k.f.[ k +.&.F < b r..     r.< $.&.I ;.[ } &.&.&.&.&.&.&.&.&.  k.k.k. . .[ $., 0 = &.&.&.d.  k.2 d.  3 6X6XrX= ",
"&.&.&.&.b.  d.d.k.  R T   &.D ..r.i.          i &.&.&.&.&.X.K &.&.&.&.&.&.&.= &   b.'  .X.&.&...O.q % &.U + k.j.k.  g.6 N   1X..",
". < &.&.X.&.d.d.g.  d.d.O 0 &.X.&.!.].      [.&.6.r.&.&.&.X.$.&.&.$.&.&.+.j Y O - i c.$.O.&.&.p $.D ~ +.  k.c.k.k.b.d.9 =Xg 7X  ",
"o :.&.< &.X.D   2   d.d.u D = &.c {.G #X  ).).r.5.<.&.&.D D   = = O.$.&.&.$.$.+.#.#.&.&.&.&.&.&.X.&.  h k.` _ v.k.d.  E.8X  iX&.",
"&.D >.&.< . < =     % = D X.X.&.D $.M Z s ].].K.K.5.r.+ + D           .       h X.$.K D &.&.&.&.&.+.O &.B.=.v.| d.J   :X-XiXiXiX",
"%X&.:.&.&.&.  . % . 2 = $.  &.&.&.,.t.W.W.^.o.n +X,.<.+., .             O , h X.X.$.&.&.&.&.&.&.&.< &.&.&.` =._ 2     6XiXiXiXiX",
"7 R.7.&.&.&.&.& r o T @.X.&.&.&.&.&.&.W.r.>.<.&.&./.D +.o D . o   2 2     < &.&.&.&.&.&.&.&.&.$.D &.&.&.&.&.$.z . &.d.j iX0XiXiX",
"iXY.&.W.u.u.&.4.E w [ O.O &.&.&.&.&.&.1.<.1.&.#X#X&.D +.* - . 2 2 @     &.&.&.&.&.&.&.&.&.&.$.f ] &.&.&.&.&.K , &.&.&.9 L.iXiXiX",
"Y.6XJ.W.&.$.2. . .e._ _ &.&.&.&.&.&.<.<.&.&.&.&.&.&.&.p +.O & U w l.d.o ! 4.&.&.&.&.&.&.&.$.j $.X.X.&.&.&.I . +.&.&.&.+.0.iXiXiX",
"iXP.uX1X&X5X,.D.i.m.I %.&.&.&.&.&.+.~.&.&.&.&.&.&.&.&.$.X.  @ z.d.U . O & $.&.$.7.&.&.&.+.l ; @.X.O.O.&.@ O Y x &.&.&.A ;XiXiXo ",
"iXiXiX<X:.&.,._ -.n.&.[ _ &.&.&.&.4.&.&.&.&.&.&.&.&.&.$.2   s.f.  ` k.d.z.y ! X.=.&.&.O.=   O.O.  g g D   X.D   N &.m N iXrXiXiX",
"iXiXiXL.2.iX&.eXw.9.&.&.&.&.&._ c.&.&.&.&.&.&.&.&.&.  =     U g k.k.k.k.m.x.&.[.S.= ].t.$.&.@.X       +   0 3.j j F Y.:XN :X:X:X",
"iXiXiX2.iX&.&.&.:...,.0 $.&.*.B.*.&.*.=.&.&.&.&.&.*. .f.2 2 f k.j.&.j.w.k.c.< O D #X#X#X,Xc I.            X # 6 rX5X9 J.L.:X:XiX",
"iXiXiXiX&.&.&.&.$.< &.&.&.=.x.&.-.&.4.&.&.&.&.&.&.x.j.%.%.  2 k.&.&.&.b.4.&.&.&.{.#X#X#Xm @XS.              6X      B =X  iX6 iX",
"iXiXiX7X$.&.&.&.< ,.&.  b.r &.X.&.-.&.&.m.c.4.&.&.*.&.&.d.d.d.&.&.&.&.&.%.&.&.v 4 #X#X#X@X            . o 6X        6       iXB ",
"iX9XJ.1XiX&.&.&.4.%.      &.< &.&.&.&.k.k.k.k.k.j.k.k.&.X.{ 0 f.&.&.&.& &.&.^.6.  O #X#X8           o ..X.O                     ",
"uXiX1.iXL.L.*.$X*.          < &.&.| m.m.k.k.k.B.j.h.L L D @.&.| } &._ | &.&.&.f.w.OX|.A.          D . O . b         iX          ",
"iXiX:XiX2.2.,.uX@.w.      &.-.&.j.v.&.&.} k.k.b.j.M.D F &.&.&.@.O.@.u &.&.&.&.&.g   8 X ).OX8.      + = < y.iX  O =X:XiX  :X:X  ",
"iXiXiXrXiX9X*XM 1.$.&.  *.G &.;.&.&.&.} } c.#.H ) ` F.j.s.o d d d f G k &.&.$.j.j.d.Y 2 @   .   &.&.u.2.tX6 X X m iXV V # iXiXtX",
"iXiXiXiXiXiXyXyX3X< 0 > &.&.=.k d +.O.&.&.-.&.;.A.m + o G h d * $ h   o D $.B.b.Z.B.d.U j ... 6 W.  5 5 <X..iX0.:X7 X B :XrX# O ",
"iXiXiXiXiXiXiXL.>XyX&.X.&.; ; o.d X.&.D &.&.o.S m &.:Xg   m   + *   &.&.g ~ Z.k.F.B.k.U O.7 b P.      uX< &.&.iXL.iXiXiXrX9 7 O ",
"iXiXiXiXiXiXiX2.iXL.L.&.8X>X6 b V d O D g o.q.0.tX0X&.6 7.      g       2 s G.^ OXk.> o.r.V A           < &.&.&.L.iXiXiXE.Y.O $.",
"iXiXiXiXiXiXiXiXiX2.2.,.iXJ.0.9 6 d d o D X.`.uX&.&.iX&.7X  9 g     &.d.I 9 .Xk.wX~ P u.0 I.R.uX      :X&.&.$.iXiXiXiXiXiXtX0X  ",
"iXiXiXiXiXiXiXiXiXiXiX1XiX2.2.iX9 V   d   R.4X$ iXiXiXiX6 6X      &.&.&.  XXwXj.iX&.}.$.*XN m iXiX  iX:XiX&.iX5XiXiXiXiX:XY.    ",
"iXiXiXiXiXiXiXiXiXiXiXiXiXiXiXrXrX      O g O iXiXiXiXiXiX:X    &.&.&.&.$.7XF iXiXiXwX@Xu.< iXV   m V L.p.J.iXiXiX9XiX6X6       ",
"uXuXiXiXiXiXiXiXiXiXiXiXiXiXiXiXrX          iXiXiXiXiXiX4X  O +   &.&.&.. d iXiXiXiXiXtX&.iXiX      iX6 V 0XiXL.L.rXrX6XY.      ",
"tXiXiXiXiXiXiXiXiXiXiXiXiXiXiX            6 6XiXiXiXiXD 7.  g       &.o ..6.iXiXiXiXiX0X6.u.          V iXiXiXiXiXiXiX:XY.&X&.  ",
"0X0XeXrXiXiXiXiXiXiXiXiXiXiX9 N   X.    Y.:X    iXiX9Xu.&.&.&.X.X.D k   Y.a O iXiXiX2.&X0X%X&.      iXrX9XiXiXiXiXiXiX  D o + . "
};
