/* XPM */
static char *ab55edaee5b5404ec700b16c40f7c8d1gYkUrqA0KYZtocFt[] = {
/* columns rows colors chars-per-pixel */
"64 64 25 1 ",
"  c #2F3699",
". c #3743A0",
"X c #3E4EA6",
"o c #4458AB",
"O c #4458AC",
"+ c #4960B1",
"@ c #516EB7",
"# c #5976BD",
"$ c #5D7DC0",
"% c #5E7EC2",
"& c #6285C5",
"* c #678DCA",
"= c #678FCB",
"- c #688ECB",
"; c #6990CB",
": c #6A92CC",
"> c #6B94CD",
", c #6D97CF",
"< c #6D99CF",
"1 c #6C96D0",
"2 c #6F99D0",
"3 c #6E99D1",
"4 c #6E9AD1",
"5 c #7099D1",
"6 c #709AD1",
/* pixels */
"3336                               .                     6666366",
"636XO                            .                      66666366",
"63>                             .. #  .                & 666;666",
"6X:>>*                           #                    -  #6#&666",
">#>*                            #  6 # .                *-;*%<66",
"--                                666 #                   X*=336",
"=*                               66666#                    -.366",
"*                               . 666                      # ><6",
":                              #   6 .              .        *66",
"              .                  ###              .          X66",
"            .                      . ##          .. #  .    *.66",
"            . #  .                                #         #.*6",
"            #                                    #  6 # .   # ##",
"           #  6 # .                                666 #      ##",
"             666 #                                66666#        ",
"            66666#                               . 666          ",
"           . 666                                #   6 .         ",
"          #   6 .                                 ###           ",
"            ##%                                     . ##        ",
"              . ##                                              ",
"                                                                ",
"                                                                ",
"                                                                ",
"                                                       .        ",
"                                                     .          ",
"        .                                           .. #  .     ",
"      .                                              #          ",
"     .. #  .                                        #  6 # .    ",
"      #                                               666 #     ",
"     #  6 # .                                        66666#     ",
"       666 #                                        . 666       ",
"      36666#                    .                  #   6 .      ",
"     . 666                    .                      ###        ",
"    #   6 .                  .. #  .                   . ##     ",
"      ##%                     #                                 ",
"        . ##                 #  6 # .                           ",
"                               666 #                            ",
"                              66666#                            ",
"                             . 666                              ",
"                            #   6 .                             ",
"                              ##%                               ",
"                                . ##                            ",
"                                                                ",
"                                                                ",
"                                                                ",
"                                                                ",
"                                                                ",
"                                                                ",
"                                                              X ",
".                                                           X . ",
"o                                                         .oo - ",
" +     .                                                .  .= # ",
"#oX  .                                                 .. #-#.6 ",
"6XO .. #  .                                             #  # <66",
">1OX.#                                                 #  6X6<66",
"66- #X 6 # .                                             26<6666",
"66:O%X666 #                                             66<36366",
"66&@.66661#                                            . 663-66*",
"1>1:6:516.X                                           #   6#6666",
"66366115>>XOX                                           ##-66666",
"661666656- o                                              o66666",
"66 66666666-oX                                           -o66666",
"6-6666666563-                                            :.36666",
"#1366666666>-                                            # >>6#>"
};
