/* XPM */
static char *fd2a969235f54f2c818dbf4858c6b062WkDnsNmWZxBbsOMZ[] = {
/* columns rows colors chars-per-pixel */
"64 64 223 2 ",
"   c #010001",
".  c #0D0301",
"X  c #0A0809",
"o  c #140201",
"O  c #1B0100",
"+  c #160A07",
"@  c #120B0A",
"#  c #070915",
"$  c #0A1719",
"%  c #171617",
"&  c #270602",
"*  c #340201",
"=  c #2C1502",
"-  c #241408",
";  c #341B05",
":  c #3A1E07",
">  c #361C08",
",  c #281915",
"<  c #3D1515",
"1  c #3C220A",
"2  c #2C2318",
"3  c #35211D",
"4  c #060A2A",
"5  c #0E122A",
"6  c #16172D",
"7  c #0D1333",
"8  c #0B143B",
"9  c #111533",
"0  c #151A3A",
"q  c #0F272C",
"w  c #1A2629",
"e  c #132D32",
"r  c #1B3239",
"t  c #2A2725",
"y  c #382A25",
"u  c #23233C",
"i  c #3A3635",
"p  c #440C0D",
"a  c #5C0908",
"s  c #4A151C",
"d  c #5B1415",
"f  c #670303",
"g  c #6A0606",
"h  c #6B0D0D",
"j  c #7C0A0A",
"k  c #69100F",
"l  c #77110F",
"z  c #670E10",
"x  c #6B1112",
"c  c #731313",
"v  c #7B1112",
"b  c #44270C",
"n  c #442711",
"m  c #4A2D13",
"M  c #522C10",
"N  c #533216",
"B  c #58371A",
"V  c #603E1D",
"C  c #511721",
"Z  c #422C27",
"A  c #4B312D",
"S  c #473929",
"D  c #553D24",
"F  c #4C3532",
"G  c #513734",
"H  c #6F322C",
"J  c #62401E",
"K  c #4B4034",
"L  c #584734",
"P  c #674627",
"I  c #754D29",
"U  c #7D542E",
"Y  c #755839",
"T  c #151D42",
"R  c #181F44",
"E  c #182046",
"W  c #243B45",
"Q  c #33374D",
"!  c #343852",
"~  c #29454C",
"^  c #384745",
"/  c #294B54",
"(  c #3B4357",
")  c #2C545D",
"_  c #375459",
"`  c #2F5B68",
"'  c #335C67",
"]  c #376775",
"[  c #366A75",
"{  c #484844",
"}  c #4E524F",
"|  c #495755",
" . c #56585A",
".. c #7B4545",
"X. c #6D5840",
"o. c #55635A",
"O. c #69634E",
"+. c #435E65",
"@. c #575961",
"#. c #436971",
"$. c #47757D",
"%. c #6B7572",
"&. c #850B0D",
"*. c #8F0E11",
"=. c #851212",
"-. c #8C1313",
";. c #851A19",
":. c #921414",
">. c #9C1415",
",. c #991819",
"<. c #A71819",
"1. c #9C2C2A",
"2. c #903B3A",
"3. c #845932",
"4. c #A0413F",
"5. c #8F643A",
"6. c #C1413F",
"7. c #874747",
"8. c #905553",
"9. c #A04444",
"0. c #BC4745",
"q. c #8F704D",
"w. c #9B6B6A",
"e. c #C14745",
"r. c #A6835A",
"t. c #B28859",
"y. c #AA8E67",
"u. c #B9956A",
"i. c #B79A73",
"p. c #BCA37D",
"a. c #C4936C",
"s. c #C19A69",
"d. c #CBA26E",
"f. c #C9A372",
"g. c #D5AC77",
"h. c #DFB175",
"j. c #E3B679",
"k. c #E6B77A",
"l. c #E6B97D",
"z. c #3D7988",
"x. c #467B85",
"c. c #407F94",
"v. c #9E7E80",
"b. c #53828D",
"n. c #4B8896",
"m. c #4D8C9C",
"M. c #518A96",
"N. c #56929E",
"B. c #4F8EA1",
"V. c #4D92A5",
"C. c #5495A5",
"Z. c #5496A8",
"A. c #569AAC",
"S. c #599BAC",
"D. c #579DB0",
"F. c #5AA2B4",
"G. c #5BA6BB",
"H. c #62ABBB",
"J. c #5CABC3",
"K. c #62AEC3",
"L. c #66B5CA",
"P. c #62B8D3",
"I. c #6ABDD4",
"U. c #6DC0D6",
"Y. c #6EC4DD",
"T. c #72C6DC",
"R. c #6FC6E0",
"E. c #6DC9E3",
"W. c #6ECBE8",
"Q. c #70C7E1",
"!. c #72CAE4",
"~. c #73C4E8",
"^. c #74CEE9",
"/. c #76D2ED",
"(. c #78D4EE",
"). c #79D6F2",
"_. c #7BD9F5",
"`. c #7CDBF7",
"'. c #95949F",
"]. c #A58A89",
"[. c #AB9B9C",
"{. c #B6A889",
"}. c #B5B0B0",
"|. c #DFB781",
" X c #E6BC83",
".X c #E8BE84",
"XX c #C6B5B0",
"oX c #D5B8B8",
"OX c #E1BDBD",
"+X c #EAC187",
"@X c #EDC48A",
"#X c #F1C68B",
"$X c #F7C989",
"%X c #F5CA8C",
"&X c #E7C79A",
"*X c #F9CE93",
"=X c #FED899",
"-X c #E5C9A1",
";X c #E9D2AB",
":X c #F6D9AB",
">X c #EDD9B6",
",X c #F0DDBC",
"<X c #F8E2AF",
"1X c #BBBFC7",
"2X c #81E2FE",
"3X c #86ECFF",
"4X c #C7C5C7",
"5X c #CCCBCB",
"6X c #D6C7C5",
"7X c #DCD1CD",
"8X c #D7D6D6",
"9X c #E3C9C4",
"0X c #EEDEC0",
"qX c #E3D7D6",
"wX c #F2E3C3",
"eX c #F2E5CE",
"rX c #F2E5D0",
"tX c #E7E7E7",
"yX c #F1EAEC",
"uX c #F9F8ED",
"iX c #EEF2F2",
"pX c #F5F7F4",
"aX c #FEFEFE",
/* pixels */
"!.!.!.!.!.!.!.!.!.!.!.!.!.!.!.!.!.!.!.!.!.!.!.!.!.!.!.!.!.!.!.!.!.!.!.!.!.!.!.!.!.!.!.!.!.!.!.!.!.!.!.!.^.!.!.!.!.!.!.!.!.!.!.!.",
"!.!.!.!.!.!.!.!.!.!.!.!.!.!.!.!.!.!.!.!.!.!.!.!.!.!.!.!.!.!.!.!.!.!.!.!.!.!.!.!.!.!.!.!.!.!.!.!.!.!.!.!.!.!.!.!.!.!.!.!.^.!.!.!.",
"!.!.!.!.!.!.!.!.!.!.!.!.!.!.!.!.!.!.!.!.!.!.!.!.!.!.!.!.!.!.!.!.!.!.!.!.Q.!.!.!.!.!.Q.!.!.!.!.!.!.!.!.!.!.!.!.!.!.!.!.!.!.!.!.!.",
"!.!.!.!.!.!.!.!.^.!.!.!.!.!.!.^.!.!.!.!.!.!.!.!.!.!.!.!.!.!.!.!.!.!.!.!.!.!.!.!.!.!.!.!.!.!.!.!.!.!.^.!.!.!.!.!.!.!.!.!.!.!.!.!.",
"!.!.!.!.!.!.!.!.!.!.!.!.!.!.!.!.!.!.!.!.E.!.!.E.!.!.!.T.!.E.T.Q.Q.!.!.!.!.Q.!.Q.!.!.!.!.!.Q.!.!.!.!.!.!.!.!.!.!.!.!.!.!.!.!.!.!.",
"!.!.!.!.!.!.!.!.!.!.^.!.!.!.^.!.!.!.!.!.!.!.!.E.R.Q.T./.Q.Y.(.).!.T.Q.Q.Q.(.Q.T.!.!.!.!.!.!.!.!.!.!.!.!.!.!.!.!.!.!.!.!.!.!.!.!.",
"!.!.!.!.!.!.!.!.!.!.!.!.!.!.!.!.!.!.!.!.!.!.E.^./.^.I.) ^.`.] w D.2X^.^.Q.) !.`.!.Q.!.!.!.!.!.!.!.!.!.!.!.!.!.!.!.!.!.!.!.!.!.!.",
"!.!.!.!.!.^.!.!.!.!.!.!.!.!.!.!.!.!.!.!.!.R.`.A.m.!._ P _ ' L b i ) M.!./ P _ / P./.R.!.!.Q.!.!.!.!.!.!.!.!.!.^.!.!.!.!.!.!.!.^.",
"!.!.!.!.!.!.!.!.!.!.!.!.!.!.^.!.!.!.E.!.Q.!.G.K K ) & J .   N I > . t #.V P . n | J.).Q.!.!.!.!.!.^.!.!.!.!.!.!.!.!.!.!.!.!.!.!.",
"!.!.!.^.!.!.!.!.!.!.!.!.!.!.!.!.!.!.!.!.T.2X) M Y - m ; D - = b D B - = I b - P : ~ L.!.Q.!.!.!.!.!.!.!.!.!.!.!.^.!.!.!.!.!.!.!.",
"!.!.!.!.!.^.!.!.!.!.!.!.!.!.!.!.!.!.!.!.!.P.~ n I B M m 3.B ; = B I m 1 b J b : I = ` _.R.!.!.!.!.!.!.!.!.!.!.!.!.!.!.!.!.^.!.!.",
"!.!.!.!.!.T.!.!.!.!.!.!.!.!.!.!.!.!.!.Y./.~ & b 1 b : N B N m b = N I = m 5.m N 3.> ] _.Q.!.!.!.!.!.!.!.!.!.!.^.!.!.!.!.!.!.!.!.",
"!.!.!.!.^.!.!.!.!.!.!.!.!.!.!.!.!.!.!.!././ ; m J 3.1 ; N ; 3.V 1 ; 1 ; 1 3.m N n   ] _.Q.Q.!.!.!.!.!.!.!.!.!.!.!.!.^.!.!.!.!.!.",
"!.!.^.!.!.!.!.!.!.!.!.!.!.!.!.!.!.!.!.Y././ o 1 J U ; 1 ; ; 3.V 1 1 1 N ; b : B m . ] _.Q.!.Q.!.!.!.!.!.!.!.!.!.!.!.!.!.!.!.!.!.",
"!.!.!.!.!.!.!.!.!.!.^.!.!.!.!.!.!.!.!.R.)./ N U B N = 1 ; U I 1 = V I > N 1 m 3.V . ] _.Q.!.Q.!.!.!.!.!.!.!.!.!.!.!.!.!.!.!.!.!.",
"!.!.!.!.!.!.!.!.!.!.!.!.!.!.!.!.!.E.!.E.).~ ; b P d.u.u.u.g.d.s.u.d.g.s.d.d.g.D I > ' _.T.!.!.!.!.!.!.!.!.!.!.!.!.!.!.!.!.!.!.!.",
"!.!.!.!.^.!.!.!.!.!.!.!.!.!.!.!.!.!.!.Q.)./ O Y d.#X#X#X#X@X@X#X#X@X@X#X@X@X@Xu.t.n ` `.T.!.T.!.2X!.!.!.!.!.!.!.!.!.!.^.!.!.!.!.",
"!.!.!.!.T.^.!.!.!.!.!.!.!.!.!.!.!.!.!.Q.(./   q.$Xj.j.j.j.j.j.k.k.j.j.j.j.j.j.$X3.. [ `.!.!.!.!.I.T.!.!.!.!.!.!.!.!.!.!.!.!.!.!.",
"!.!.!.!.!.!.!.!.!.!.!.!.!.!.!.!.!.!.!.T.2X/ F XX>XwXwXwXwXwX>X>X>X,XwXwXwXwXwX,XXXy [ `.Y.!.!.!.!.!.!.!.^.!.!.!.!.!.!.!.!.!.!.!.",
"!.!.!.!.!.!.!.!.!.!.!.!.^.!.!.!.!.!.T.^.L.q  .tXyXoXoXoXoXoXyXaXaXtXoXoXoXoXoXiX8X{ q L./.Y.!.!.!.!.!.!.!.!.!.!.!.!.!.!.!.!.!.!.",
"!.!.!.!.!.!.!.!.!.!.^.!.!.!.!.T.T.!.Y.L.^ 3   %.OX-.1.1.1.:.oXuXuXXX*.1.1.1.-.9X| @ Z | L.!.!.!.!.!.!.!.!.!.!.!.I.2X!.!.!.!.!.!.",
"!.!.!.!.!.!.!.!.!.!.!.!.!.!.!.!.!.^.Y.w r.=XL %.9X2.6.6.e.4.6X;X<XXX4.6.6.e.9.9X} X.=Xq.r /.!.!.T.!.!.!.!.!.!.!.T.!.!.!.!.!.!.!.",
"!.!.!.!.!.!.!.!.!.!.!.!.!.!.!.!.E.^.T.w r.$XL K ;XoX6.e.0.6X-X.Xl.;XoXe.e.e.6X:XS X.=Xq.r /.T.!.!.!.!.!.!.!.!.!.!.!.!.!.!.!.!.^.",
"!.!.!.!.!.!.^.!.!.!.!.!.!.!.!.!.!.!.!.w r.$XL L .X&XqXqXqX&X.X.X.X.X&XqXqXqX&X%XK X.*Xq.r /.E.!.!.!.!.!.!.!.!.!.!.!.!.!.!.!.!.!.",
"!.!.^.T.!.!.!.!.!.!.!.!.!.!.!.!.!.!.E.I.^ u.L L +X.X&X&X&X.X X.X.X.X.X&X&X&Xl.*XK O.r.^ Y.Y.!.!.!.!.!.!.!.!.!.!.!.!.!.!.!.!.!.!.",
"!.!.!.^.!.^.!.!.!.!.!.!.!.!.!.!.!.!.T.^.J.} o L .X Xl. X X Xl.l.l.l.k..Xl..X X$XL . o.L.^.E.!.!.!.!.!.!.!.!.~.!.!.!.!.!.!.!.!.!.",
"!.!.!.!.!.!.!.!.2X!.!.!.!.!.!.!.!.!.!.Y.(.J.e L  X X+X+X.X0XeXwXwXrX,X.X.X.X.X%XK r I.(.Y.!.!.!.!.!.!.!.!.!.T.!.!.!.!.!.!.!.!.!.",
"!.!.!.!.!.!.!.!.I.!.!.!.!.!.!.!.!.!.!.!.Y.2X] B #X X X+X.X,XpXaXaXpX>X.X.X X X=XD ] 2XY.!.!.!.E.!.!.!.!.!.!.I.2X!.!.!.!.!.!.!.!.",
"!.!.^.!.!.!.!.!.T.!.!.!.!.!.!.!.!.!.!.!.E./.m.} y.#X@X+X Xj.>XrXrX;Xj..X.X#X$Xu. .Z.^.E.!.T.!.!.!.!.!.!.!.!.!.!.!.!.!.!.!.!.!.2X",
"!.!.!.!.!.!.!.!.!.!.!.!.!.!.!.!.!.!.!.!.!.T.2Xn., u.i.@X@X+Xl. Xl.l..X@X+Xy.i., V.2XT.!.!.!.!.!.!.!.!.!.!.!.!.!.!.!.!.!.!.!.!.I.",
"!.!.!.!.!.!.!.!.!.!.!.!.!.!.!.!.!.!.!.!.!.I.I.$.o . i f.d.|.+X@X@X@X|.f.u.i . O b.P.I.!.!.!.!.!.!.!.!.!.!.!.!.!.!.!.!.!.!.!.!.!.",
"!.!.!.!.!.!.!.!.!.!.!.!.!.!.!.!.!.Y.!.Y./._   d >...}.% % u.|.g.g.j.y.% w XX..>.d . +.(.T.!.!.!.!.!.!.!.!.!.!.!.!.!.!.!.!.!.!.!.",
"!.^.!.!.!.!.!.!.!.!.!.!.!.!.!.!.!.Q.Q.(.` c <.&.7.6X5XtXtXK X % % X { tXtX8X5X2.&.<.l ) (.T.!.!.E.!.!.!.!.!.!.!.!.!.!.!.!.!.!.!.",
"!.!.!.!.!.!.!.!.!.!.!.!.!.!.!.!.!.Q.T.) c >.>.:.;.H 7.8XaX8X4X5X5X5X8XaX7XH H v :.>.<.c / T.T.!.!.!.!.!.!.!.!.^.!.!.!.!.!.!.!.!.",
"!.!.!.!.!.!.!.!.!.!.!.!.!.!.!.!.Q.^.).q *.<.-.:.-.&.v ..8XaXaXaXaXaXaX5XH v &.*.:.=.<.&.e _.E.!.!.!.!.!.!.!.!.!.!.!.!.!.!.!.!.!.",
"!.!.!.!.!.!.!.!.!.!.!.!.!.!.E.!.^.I.#.H :.>.:.-.=.,.:.h ..5XpXaXaXaX5X..&.:.,.=.=.:.>.:.H +.Y.!.!.Q.!.!.!.!.!.!.!.!.!.!.!.!.!.!.",
"!.!.!.!.!.!.!.!.!.!.!.!.!.!.!.T.^.I.X <.>.-.:.a p =.:.:.g 8.oXpXaXXX7.j ,.:.v p a :.-.<.>.X !.!.Q.!.!.!.!.!.!.!.!.!.!.!.!.!.!.!.",
"!.!.!.!.!.!.!.!.!.!.!.!.!.!.!.!.Q.C.< :.>.-.x o o l :.-.,.f ].iXiXv.f ,.:.:.c o o z -.>.-.s b.Y.!.!.!.!.!.!.!.!.!.!.!.!.!.!.!.!.",
"!.!.!.!.!.!.!.!.!.!.!.!.E.!.Y.^.K.o -.:.-.<.* $ i a -.-.:.h ].iXiX].g :.-.=.a i $ & v :.:.-.. K.^.Q.!.!.!.!.!.!.!.!.!.!.!.!.!.!.",
"!.!.!.!.!.!.!.!.!.!.!.!.!.!.E./.L.@ =.:.:.;.p n.G.o x -.,.h ].iXiX].g ,.-.z o K.M., x :.:.=.@ L.^.!.!.!.!.Q.!.!.!.!.!.!.!.!.!.!.",
"!.!.!.!.!.!.!.!.!.!.!.E.!.!.E.^.K.+ =.:.,.* z.`.A.o x -.:.g ].iXiX].f :.:.x o C.2X[ * ,.:.=.- H.^.!.!.!.!.!.!.!.!.!.!.!.!.^.!.!.",
"!.^.!.!.!.!.!.!.!.!.!.!.!.T.^.G.t ;.:.*.,.* z.2XA.O x -.:.g ].iXiX].f ,.-.x o C.2X[ * ,.-.-.;.- F.^.Q.!.!.!.!.!.!.!.!.!.!.!.!.!.",
"!.!.!.!.!.!.!.^.!.!.!.!.!.Y._.H.O g g h * x./.C.$ o h -.:.g ].iXiX].z :.-.h + X N./.M.& k k d @ F.).Y.!.!.E.!.!.!.!.!.!.!.^.!.E.",
"!.!.!.!.!.!.!.!.!.!.!.!.!.^.K.r % u.a.a., V.3Xx.. d =.:.,.f ].iXiX].f :.:.-.d o x.3XC.t {.i.p.t $ D./.Q.!.!.!.!.!.!.!.!.!.T.!.E.",
"!.!.!.!.!.!.!.!.!.!.!.!.Y.).n.= y.@X#X$Xi.o.J.m.O v :.-.j w.5XaXaX5Xw.v ,.:.v O m.F.} p.%X#X$Xp.2 c.).T.!.!.!.!.!.!.!.T.!.E.T.E.",
"!.!.!.!.!.!.!.!.!.!.!.!.Y.).c.K =Xl..Xj.<XV [ A.o x :.:.a [.aX1X}.aX[.f -.-.c O C.[ N =Xj.l.l.=XP z._.R.!.!.!.!.!.!.!.!.!.!.!.!.",
"!.!.!.!.!.!.!.!.!.!.!.!.E.(.G.o.u.+X+X#Xd.o.J.m.O c *.=.8.6X4X( ! 1X8X8.;.:.c O n.J.o.u.%X$X%Xs.%.J.^.Q.!.!.!.!.!.!.!.!.!.!.!.T.",
"!.!.!.!.^.!.!.!.!.!.!.!.!.Y./.U.^ h.k.h.} G.`.n.O l =.C '.1X( 8 8 ( 1X'.C v l O b.`.K._ y.r.t.o.P.).Q.!.!.!.!.!.!.!.!.!.!.!.^.T.",
"!.!.!.!.!.!.^.^.!.!.!.!.!.!.T.!.T.|  .^ L.(./.n.o d s 0 8 7 R R T T 7 8 T s d o x.(.!.I.W W ~ I.^.Y.!.!.!.!.!.!.!.!.!.!.!.!.!.T.",
"!.!.!.!.!.!.T.!.!.!.!.!.T.^.!.!.!.!.E.W.E.Y./.Z.$ 5 R T E E R 7 9 R R R R T 7 $ N./.T.E./././.Q.E.!.!.!.!.!.!.!.!.!.!.!.!.!.!.T.",
"!.^.!.!.!.!.!.!.!.!.!.!.!.!.!.!.Q.!.!.!.!.!.Y./.Z.  5 R T T 9 # # 7 T T T 9   S./.R.!.!.Y.Y.Q.!.!.!.!.!.!.!.!.!.!.!.!.!.!.!.!.T.",
"!.!.!.!.!.!.!.!.!.!.!.!.!.!.!.!.!.!.!.!.!.!.Y._.H.%  .T T 4 #     # 7 T T  .% F._.R.!.!.!.^.!.!.!.!.!.E.!.!.!.!.!.!.!.!.!.Q.!.T.",
"!.!.!.!.!.!.!.!.!.!.!.!.!.!.!.!.!.!.!.Q.!.Q.^.F.r 5 Q @.@.@.6     % @.@.@.Q 4 w C./.E.!.!.W.Q.!.Q.!.!.!.!.!.!.!.!.!.!.Q.!.!.!.Q.",
"!.!.!.!.!.!.!.!.!.!.!.!.!.!.!.!.!.!.!.!.!.Q.).n.  9 T Q Q Q %     # Q ! ! T 8   $.).T.!.!.!.!.!.!.!.!.!.!.!.!.!.!.!.!.!.!.!.!.E.",
"!.!.!.!.!.!.^.!.!.!.!.!.!.!.!.!.!.!.!.!.!.Q._.n.  9 R T 8 4   ) '   4 8 T T 0   $._.Q.!.!.!.!.!.!.!.!.!.!.!.!.!.!.!.!.!.!.Q.!.E.",
"!.!.!.!.!.!.!.!.!.!.!.!.!.!.!.!.!.!.!.!.!.Q.^.K./ # 0 T Q ! @ Z.D.X { ( T 0 # / H.^.!.!.!.!.!.!.!.!.!.!.!.!.!.!.!.!.!.!.!.!.Q.W.",
"!.!.!.!.!.^.!.!.!.!.!.!.!.^.!.!.!.!.!.!.!.!.Q.).K.  4 Q |  .% n.C.%  .| Q 9 X H._.R.!.!.Q.!.!.!.!.!.!.!.!.!.!.!.!.!.!.!.!.!.!.~.",
"!.!.!.!.!.!.!.!.!.!.!.!.!.!.!.!.!.!.!.!.!.!.Q.(.F.. 6  .u 5   C.C.  5 0 } 6   A./.Q.!.!.!.!.!.!.!.!.!.!.!.!.!.^.!.!.!.!.!.!.!.Q.",
"!.!.!.!.!.!.!.!.!.!.!.!.!.!.!.!.!.!.!.!.!.!.W.^.S.+ 3 3 3 y . V.S.. 3 3 3 3 + m.!.Q.!.!.!.!.!.!.!.!.!.!.!.!.!.!.!.!.!.!.!.Q.!.E.",
"!.!.!.!.!.!.!.!.!.!.!.!.!.!.!.!.!.!.!.Q.!.Q./.B.% A A A A Z o B.S.. Z A A A G + x._.Q.!.!.!.!.!.!.!.!.!.!.!.!.!.!.!.!.!.!.!.!.!.",
"!.!.!.!.!.!.!.!.!.!.!.!.^.!.!.!.!.!.!.!.!.Q.).B.o G F A Z Z o m.D.@ y Z A A G + x.).Y.!.!.!.!.!.!.!.!.!.!.!.!.!.!.!.!.Q.!.!.!.!.",
"!.!.!.^.!.!.!.!.^.!.!.!.!.!.!.!.!.!.!.!.!.!.Q.!.M.+ @ @ @   x.!.^.N.o X @ @ o x.^.Q.Q.!.!.!.!.!.^.!.!.!.!.!.!.!.!.!.!.!.!.!.!.!.",
"!.!.!.!.!.!.!.!.!.!.!.!.!.!.!.!.!.!.!.!.!.!.Q.^.~.Z.Z.Z.A.Z.U.^.!.R.D.D.D.S.S.R.^.Q.!.!.!.!.!.!.!.!.!.!.!.^.!.!.!.!.!.!.!.!.!.Q.",
"!.!.!.!.!.!.!.!.!.!.!.!.!.!.!.!.!.!.!.!.!.!.!.Q.Q./.(.(.)./.!.R.!.!././././.).Q.Q.!.!.!.!.!.!.!.!.!.!.!.!.!.!.!.!.!.!.!.!.E.!.!."
};