/* XPM */
static char *Ekran_Resmi_2023_08_30_O__S_6_02_341693407810[] = {
/* columns rows colors chars-per-pixel */
"64 64 185 2 ",
"   c #0E0E0E",
".  c #747474",
"X  c #13131A",
"o  c #BCB3BA",
"O  c #0C0C0C",
"+  c #9E979E",
"@  c gray4",
"#  c black",
"$  c gray2",
"%  c #343435",
"&  c #9D959C",
"*  c #989197",
"=  c #E1E3E5",
"-  c #8F898F",
";  c #AAA2A8",
":  c #E4E5E7",
">  c #F3F4F4",
",  c #958E94",
"<  c white",
"1  c #454467",
"2  c #A49DA2",
"3  c #111117",
"4  c #BFB6BD",
"5  c #8D868C",
"6  c #A1999D",
"7  c #595859",
"8  c #A59EA4",
"9  c #A29BA1",
"0  c #10101A",
"q  c #9B949A",
"w  c #F6F7F7",
"e  c #FAFAFB",
"r  c #ADA4AA",
"t  c #989299",
"y  c #3B3A5A",
"u  c #B7B0B6",
"i  c gray46",
"p  c #A8A0A6",
"a  c #C2B9C0",
"s  c #D0D2D6",
"d  c #DEE0E2",
"f  c #212021",
"g  c #DADBE0",
"h  c #969096",
"j  c #F0F1F1",
"k  c #AFA8AE",
"l  c #CBCDD1",
"z  c #877E82",
"x  c #2B2A48",
"c  c #928B92",
"v  c #ABA6AC",
"b  c #B2ABB1",
"n  c #FCFCFD",
"m  c #BAB1B8",
"M  c #B4ADB2",
"N  c #272542",
"B  c #D5D3D6",
"V  c #805B45",
"C  c #D9D6D9",
"Z  c #7C4D38",
"A  c #898489",
"S  c #714637",
"D  c #242327",
"F  c #181729",
"G  c #D0CDD1",
"H  c #222222",
"J  c #989598",
"K  c #141321",
"L  c #1E1C32",
"P  c #744B3A",
"I  c #353456",
"U  c #5D5C63",
"Y  c #272627",
"T  c #403F62",
"R  c #A69E9C",
"E  c #806458",
"W  c #22213B",
"Q  c #917561",
"!  c #E5C3AB",
"~  c #0F0F16",
"^  c #292829",
"/  c #19181E",
"(  c #C6BDC2",
")  c #E0BEA3",
"_  c #B99B85",
"`  c #B2A9A6",
"'  c #7A503D",
"]  c #D6AB90",
"[  c #735145",
"{  c #9D7D6A",
"}  c #96634D",
"|  c #535254",
" . c #F0DAC4",
".. c #AE8E77",
"X. c #A58773",
"o. c #DBB89D",
"O. c #9C9292",
"+. c #B4886E",
"@. c #945A46",
"#. c #8A5540",
"$. c #B2AAAE",
"%. c #795448",
"&. c #826150",
"*. c #ACA09F",
"=. c #EDD3BC",
"-. c #61606F",
";. c #5D423D",
":. c #805240",
">. c #323151",
",. c #EEF3FB",
"<. c #B97C66",
"1. c #BC8364",
"2. c #B27557",
"3. c #4C4A69",
"4. c #ACA299",
"5. c #7F787B",
"6. c #635146",
"7. c #AFA6A0",
"8. c #836D5E",
"9. c #E1C8B7",
"0. c #BAB0AE",
"q. c #E9CEB6",
"w. c #C39B81",
"e. c #B79179",
"r. c #986E57",
"t. c #EEEEEF",
"y. c #B5795E",
"u. c #6E4234",
"i. c #CA9173",
"p. c gray61",
"a. c #C7C7CB",
"s. c #919192",
"d. c #AA948A",
"f. c #686677",
"g. c #CBA98F",
"h. c #9C8E87",
"j. c #E8E8EA",
"k. c #353536",
"l. c #A57B62",
"z. c #AE8168",
"x. c #E3DEE0",
"c. c #A5684E",
"v. c #6F6D80",
"b. c #AB7055",
"n. c #75748C",
"m. c #705B4D",
"M. c #444347",
"N. c #706B71",
"B. c #C9B3A5",
"V. c #F3DCDB",
"C. c #D4B69F",
"Z. c #BCA395",
"A. c #D4D6DA",
"S. c #F5E3CD",
"D. c #817E8D",
"F. c #CEAD96",
"G. c #917C71",
"H. c #95817B",
"J. c #8A6D6C",
"K. c #C08C71",
"L. c #D1967E",
"P. c #A56B5E",
"I. c #6A4747",
"U. c #653632",
"Y. c #4D1218",
"T. c #2D2B35",
"R. c #716A66",
"E. c #D5C5BC",
"W. c #F7EADA",
"Q. c #494256",
"!. c #978E8D",
"~. c #AD9B93",
"^. c #BCA6A1",
"/. c #968986",
"(. c #745859",
"). c #5B1E24",
"_. c #655955",
"`. c #040404",
"'. c #363338",
"]. c #5D4E5D",
"[. c #552D31",
"{. c #C3D2C2",
"}. c #34323C",
"|. c #E7E4DC",
" X c #DDC3C7",
/* pixels */
"# # # # # # # # # # # # # # # # # # # # # # # # # # # # # # # # # # # # # # # # # # # # # # # # # # # # # # # # # # # # # # # # ",
"# # # # # # # # # # # # # # # # # # # # # # # # # # # # # # # # # # # # # # # # # # # # # # # # # # # # # # # # # # # # # # # # ",
"# # # # # # # # # # # # # # # # # # # # # # # # # # # # # # # # # # # # # # # # # # # # # # # # # # # # # # # # # # # # # # # # ",
"# # # # # # # # # # # # # # # # # # # # # # # # # # # # # # # # # # # # # # # # # # # # # # # # # # # # # # # # # # # # # # # # ",
"# # # # # # # # # # # # # # # # # # # # # # # # # # # # # # # # # # # # # # # # # # # # # # # # # # # # # # # # # # # # # # # # ",
"# # # # # # # # # # # # # # # # # # # # # # # # # # # # # # # # # # # # # # # # # # # # # # # # # # # # # # # # # # # # # # # # ",
"# # # # # # # # # # # # # # # # # # # # # # # # # # # # # # # # # # # # # # # # # # # # # # # # # # # # # # # # # # # # # # # # ",
"# # # # # # # # # # # # # # # # # # # # # # # # # # # # # # # # # # # # # # # # # # # # # # # # # # # # # # # # # # # # # # # # ",
"# #   % k.% % k.k.% % % k.k.% % % k.k.% % % % k.% % % k.k.% % k.k.k.% % % % k.% % % % k.% % k.k.k.% k.k.k.k.k.% % % % % %   # # ",
"# `.M.E.E.{.s a.l s s s a.G s s l a.l s s B B l s s l l l s s l l l s s s s l s s B s l s s v a.l s d g = : j.d s A.A.A.s M.# # ",
"# # | x.|.d : A.g d = d A.d d = d A.g d = : = g = = g g g d = g g g = = = d g = = : d g = d u A.g = t.t.> > e t.g = : = d | # # ",
"# # 7 n < < w e t.j.g d d d d = : = = d = = = = = : : = = : : = j.: = = : : : = = : : = : : : : j.j j.j w j x.` V.V.V.V.W.| # # ",
"# # k.p.p.p.p.p.J s.s.s.J ( a.a.l a.l l G l G G G G G G G G B G B B B B B B B C B C C C C g C g g x.B 9 J J s.5.!././.!.!.% # # ",
"# # $ O O O O O O O   O H - + + + 6 9 9 2 8 8 8 p ; ; r r r r k k b b M M u m m o o 4 4 a a a a ( ( M ^ O O             O $ # # ",
"# # $                 O H - + + + + 9 9 2 2 8 8 p p ; ; r r r k k k $.b M u u m m o o 4 4 a a a a ( M ^ O                 $ # # ",
"# # $                 O H - + + + + 6 9 2 2 8 8 p p ; ; r r r r k k $.b M u u m m o o 4 4 4 a a a ( b ^ O                 $ # # ",
"# # $                 O H - + + + + 9 9 9 2 8 8 8 p p ; ; ; ; r r k k b b M u u m m o o 4 4 a a a ( b ^ O                 $ # # ",
"# # $                 O H - + + + + R R R *.2 2 8 8 p p ; ; ; r r r r k $.b M u u m m o 4 4 4 4 a a $.^ O                 $ # # ",
"# # $                 O H - + & + 9 7.7.7.` ; 2 2 2 8 p p ; ; R ~.B.E.^.~.d.^.0.u u m o o 4 4 4 4 a b ^ O                 $ # # ",
"# # $                 O H - + & & p 0.4.4.0.k 2 2 2 2 2 2 6 h.X._ C.9.! g.....C.E.( o m o o 4 4 4 a k ^ O                 $ # # ",
"# # $                 O H 5 & & & 6 7.4.4.` 8 9 9 2 2 R /.G.{ _ 9. .! ! ) g.w._ C.9.( m m m o o 4 a k ^ O                 $ # # ",
"# # $                 O H 5 & & + 6 R R R 4.2 6 6 6 9 /.Q Q X._ 9.S.! ] F.] ] o.) =.9.0.0.u o o o 4 v ^ O                 $ # # ",
"# # $                 O H 5 & & + + + 6 9 + 6 6 6 6 O.8.8.Q { ..F.=. .) o.o.o.) =.S.W. .B.4.u m o 4 v Y O                 $ # # ",
"# # $                 O H 5 & & & & + + + + + & + 6 z m.8.Q Q X._ F.q.S.=.) ) q.=.S. .=.B.d.` u m o r Y O                 $ # # ",
"# # $                 O H 5 q q & & & & & & & & & & R.6.E Q { X...e.g.q. .! )  .W. .! ) C.Z.*.$.m o ; Y O                 $ # # ",
"# # $                 O H 5 q q q q & & q q q & & * _.6.E G.d.X...e.w.g.) q.o.=. .! o.C.F.Z.*.$.u m ; Y O                 $ # # ",
"# # $                 O H 5 q J q q q q q q q q & - 6.m.E Q ..Z._ +.z.+.w.) ! q.q.o.] g._ ~.` M u m ; Y O                 $ # # ",
"# # $                 O H 5 q J q q q q q t t J q A 6.m.E 8.Q X._ ..l.+.w.] ! ! ] w.e.e...*.$.M u u p Y O                 $ # # ",
"# # $                 O H 5 q J t t t t t * t t q 5.;.m.E E &.} r.l.+.z.K.w.] ] L.1.z.l.X.; b b b u p Y O                 $ # # ",
"# # $                 O H 5 J * J t t * * * * * * 5.;.6.E &.V #.@.} y.K.K.<.K.i.i.K.y.r.H.r k b b M 8 Y O                 $ # # ",
"# # $                 O H A J t t t * * * * * * * z [ m.&.V V r.r.} } y.y.c.b.<.+.e.+.r.d.r v k k b 2 Y O                 $ # # ",
"# # $                 O H 5 J t * * * * * * h * * 5 %.%.&.V V &.Q { l.} @.@.} l.{ Q { { *.v v v v b 9 Y O                 $ # # ",
"# # $                 O H A J h h * h * h h h h * , E S &.V V ' ;.;.[ S Z :.S ;.;.' r.{ *.; v v v k + Y O                 $ # # ",
"# # $                 O H A * h , h h h h h , , , h J.S &.V V V [ I.U.U.@.P.U.u.E z.K.e.*.; ; ; v v + Y O                 $ # # ",
"# # $                 O H A * , , , , , , , , , , , z %.%.V V V ' [ P Z c.i.@.:.} +.i._ 8 p p p ; v + Y O                 $ # # ",
"# # $                 O H A h , , , , , , c c c c c - 8.[ %.:.:.' :.V :.P.L.2.2.y.1.+.d.2 8 8 8 p ; q Y O                 $ # # ",
"# # $                 O H A , c c c c c c - - - - - - . 6.%.' Z Z #.:.P <.L.2.y.2.c.z.6 9 9 2 8 8 p t D O                 $ # # ",
"# # $                 O f z c - - - - - - 5 5 5 5 z 7 T._.%.' Z Z #.Z P y.L.<.c.2.b.X.& + + + 9 9 8 h D O                 $ # # ",
"# # $                 O f z - - - 5 5 5 5 5 A 5.7 T./ / R.[ P ' Z Z Z u.Z #.<.b.2.1.J.v.D.h + + + 9 , D O                 $ # # ",
"# # $                 O f z - 5 A A A z N.U M.D K X X X R.8.S ' Z ' ' P P } i.1.y.1.].1 3.3.f.D.c & , D O                 $ # # ",
"# # $                 O f 5.A A z . | }.D K X X 3 3 X X | h.[ P Z P P P S @.b.} 2.r.Q.1 1 3.3.1 3.-.f.f O                 $ # # ",
"# # $                 O f 5.z N.Q.T.F K X X 3 3 3 3 X 3 '.O.H.S P S S S u.Z #.} #.I.y T 1 1 3.1 1 1 T / O                 $ # # ",
"# # $                 O f U Q.x W L F K X 3 3 3 3 X X X D z R G.P S S u.#.P.<.1.{ ].y y 1 1 1 1 1 1 T / O                 $ # # ",
"# # $                   3 N N N N N L F K 0 0 0 0 X X X / N.6 7.H.[ S S #.c.b.Z.: v.y y 1 1 1 1 1 T y / O                 $ # # ",
"# # $                   3 N x x x N W F K 0 3 3 0 0 X X X U O.*.` /.(.I.[ J.h.C n D.y y T 1 T 1 T y >.X                   $ # # ",
"# # $                   3 N x x x N W L F X 0 3 0 0 X X X | O.R ` ` G.[.;.O.0.t.< h y I y T 1 1 T I x X                   $ # # ",
"# # $                   3 N x N N W L L K K 0 ~ ~ 3 X X 3 M.* R ` O.[.Y.Y.I.0.e < 9 y I I y T T y >.x X                   $ # # ",
"# # $                   3 W N N N W L L F K 0 3 0 0 0 X 3 '.c 6 & 5 (.Y.).J.r x.< v y I I y y y >.x x X                   $ # # ",
"# # $                   ~ L W W W L L L F K K X 0 0 0 X X D A , z 5 z ).U.O.G x.e u y I >.y y y >.x x X                   $ # # ",
"# # `.@ @ @ @ @ @ @ @ @   F L L W L F F F K 0 0 0 ~ ~ ~ ~ / N.z z 5 (.Y.).^.e < < ( y >.>.I I I x N x 3 @ @ @ @ @ @ @ @ @ `.# # ",
"# # f 7 7 7 7 7 7 7 7 7 7 -.-.f.f.f.-.-.-.-.U U U U U U U U * r M M H.E P. Xn n < g D.n.n.n.n.n.v.v.v.U 7 7 7 7 7 7 7 7 7 f # # ",
"# # | w w > j > > w j w e e e w > j > > w > > e e e w > j j > w w > e e e w e w > w > w > e e e n n n e e e w ,.,.,.,.e > | # # ",
"# # 7 n e j t.> j w t.w < < < e > t.> j > j > < < < e w t.j j > > j < < < e w t.j j j w j e < < < < < < < < n ,.,.,.e < e 7 # # ",
"# # H . . i i i i . i . . . . . i i i i . i i . . . . . i i i . i i . . . . . i i i i . i . . . . . . . . . . i i . . . . D # # ",
"# # # # # # # # # # # # # # # # # # # # # # # # # # # # # # # # # # # # # # # # # # # # # # # # # # # # # # # # # # # # # # # # ",
"# # # # # # # # # # # # # # # # # # # # # # # # # # # # # # # # # # # # # # # # # # # # # # # # # # # # # # # # # # # # # # # # ",
"# # # # # # # # # # # # # # # # # # # # # # # # # # # # # # # # # # # # # # # # # # # # # # # # # # # # # # # # # # # # # # # # ",
"# # # # # # # # # # # # # # # # # # # # # # # # # # # # # # # # # # # # # # # # # # # # # # # # # # # # # # # # # # # # # # # # ",
"# # # # # # # # # # # # # # # # # # # # # # # # # # # # # # # # # # # # # # # # # # # # # # # # # # # # # # # # # # # # # # # # ",
"# # # # # # # # # # # # # # # # # # # # # # # # # # # # # # # # # # # # # # # # # # # # # # # # # # # # # # # # # # # # # # # # ",
"# # # # # # # # # # # # # # # # # # # # # # # # # # # # # # # # # # # # # # # # # # # # # # # # # # # # # # # # # # # # # # # # ",
"# # # # # # # # # # # # # # # # # # # # # # # # # # # # # # # # # # # # # # # # # # # # # # # # # # # # # # # # # # # # # # # # ",
"# # # # # # # # # # # # # # # # # # # # # # # # # # # # # # # # # # # # # # # # # # # # # # # # # # # # # # # # # # # # # # # # ",
"# # # # # # # # # # # # # # # # # # # # # # # # # # # # # # # # # # # # # # # # # # # # # # # # # # # # # # # # # # # # # # # # "
};
