/* XPM */
static char *_4193d80e8e74991a6387517dab2ffe1h97YTGGMhMcLRrDL[] = {
/* columns rows colors chars-per-pixel */
"64 64 80 1 ",
"  c #4D4D4E",
". c #4F4F51",
"X c #4F5052",
"o c #535355",
"O c #565658",
"+ c #57585A",
"@ c #5A5A5C",
"# c #5E5F61",
"$ c #605F61",
"% c #5F6062",
"& c #616264",
"* c #666769",
"= c #67686A",
"- c #696A6C",
"; c #6E6F71",
": c #6F7072",
"> c #727274",
", c #767779",
"< c #77787A",
"1 c #7B7C7E",
"2 c #7E7E80",
"3 c #7F8082",
"4 c #828385",
"5 c #858688",
"6 c #87888A",
"7 c #898A8C",
"8 c #8B8B8D",
"9 c #8C8D8E",
"0 c #8D8E90",
"q c #8E8F91",
"w c #8F8F92",
"e c #8F9092",
"r c #909193",
"t c #919294",
"y c #929394",
"u c #939597",
"i c #959496",
"p c #949597",
"a c #949598",
"s c #959698",
"d c #969698",
"f c #979698",
"g c #97989A",
"h c #98989A",
"j c #98999B",
"k c #9A9A9C",
"l c #9A9C9D",
"z c #9B9C9E",
"x c #9C9D9F",
"c c #9D9EA0",
"v c #9E9FA1",
"b c #9EA0A2",
"n c #9FA0A2",
"m c #A0A1A3",
"M c #A2A2A4",
"N c #A2A3A4",
"B c #A3A3A5",
"V c #A3A4A6",
"C c #A5A5A6",
"Z c #A4A5A7",
"A c #A5A5A7",
"S c #A5A7A9",
"D c #A6A6A8",
"F c #A6A7A9",
"G c #A7A8AA",
"H c #A7A8AB",
"J c #A8A8A9",
"K c #A8A9AB",
"L c #AAAAAB",
"P c #A8AAAC",
"I c #AAABAD",
"U c #ABACAE",
"Y c #ACACAE",
"T c #ADADAF",
"R c #ACADB0",
"E c #ADAEB0",
"W c #AEAEB0",
"Q c #AFB0B2",
"! c #B0B1B3",
"~ c #B2B2B4",
/* pixels */
"FKKGGGGGGGFFIIFIIKKKKKGGGFGGFIFFFFFFIFIIIKKKDKKFFTq12vIGGGGIIGIF",
"IURUIIRIUUIFKIFIKIKITTUUURIRIIRIRRIRIFIHKIKFKTITIRr24MRRURUGGIIA",
"psspuuuusuuFIIKIIKIvutspstsussppssstBIIFKKFIBupsss543uuusukGKGIF",
"12211111222VFIFFKGIr1111111222221121sIFFFFAIx111112221111<5GFFFA",
"34455555434GRRTTRTRp1445455544444442v~RRRTIRm24555445555427RIUTK",
"34,*==**144qqreetqr645-*==*-344444427tttqqrr744>****===-425rqee9",
"44:Xoooo,4322212211144$XOoo@4233222221211111145-XOoooOoO42211111",
"44>O@@@+14334434444444*@@@O#4444242424444444444>o@@@@@o#44454443",
"#&#+@@@@#%&$#&##&$$&%&@@@+@+$$&&#>45*@&&#&&#&&&@@+@+@++++&$##%%@",
"oooOOOoOoooooOooOooooooO+OOOooooX=43&oOOooooooooO+Oo++OOoOOooOO.",
"$&#@##@####@#@%##@#@#@#@@$+&&###@:55*@&##$#@@$#@+&@&&@%%$@&#%&#@",
"AFFAAFAAAFA426FAFAFFFFFFADAAFFKFFGGGAAFFFFFFAAAAAAAAAAVAAAAAAAAA",
"KIIIGIUIUUI426TUTTTTKKITYYITTIIKIIIIIGUIKIIIIIITTKUUTTTTTUKTKIKK",
"KKIGGVvvvvx415nnmmvAKFvxvvmmmvmIFFGIGFIGKKmvmvvvnnnnnnnnmmmmnNKA",
"GKGFIe1322424222241pIK712122419UFGHIIFIGKF41222113133313313119KA",
"UUIIRt1444444544441jRR92444542qRUUUUUUUIIF4444244444544444441q!K",
"jjjjj844,:>>:>>>,43qkk534>:>446xkkkjjjkjjp444471>>>:;444244417kp",
"11112224@XoooOoX*43211332@o+3331111111221114144=Xoooo14244424111",
"55555545&+@+O+@o-64555454@O&5455555454655555556=O@++O17544245554",
"**==*===@+++@@++#-=======@+@=====*-=-===*===**=&+++@+**=441**==&",
"ooOoooooO@@+O@@O+oOoooOOO@o@OoOOoOoOooOoOOOo+oo++++@OOo+15>oOOO ",
"OOOoo+o+OooooooooOo+oOOooooooOoOOOOooOOOoooOoooooOoooOo@14>Ooooo",
"ppppppfistssuuiiiipisippppppuse>>5ffpppppppppppuppppufppnnmrpppt",
"TTTTRTTTITTRRTTTWYRYRYRRTTTRRQM44f~WWTWTTTTTTUTTTTTTTTTTTIWWWWRK",
"DAFIKKFKAKAGJJFKDDDKFFKFFMFFGIk32yKMJAJJKKKKKAGAJAKAKAKKGAAGGKAV",
"42rYKKKD74444445461fIIIIF54454434444444vKKKKKKUp14444544447KKg33",
"21tRTTDT52134424422fRIITI42233434144424CTKKTTKTg13144444417UTl11",
"42rBvmvM5141,144442tAvvBv434433441,,214jmxmmmmAu14111111436nNu23",
"44411332241@O@4142422222222342325-oo>4411311114134*o++O@33331222",
"54445444444&O&5554444445434543456-OO,7444555644545*o+@O@45444444",
",>,,,,>>>>,+O$>>,,>>>>>>>>>,342>,*OO;,,>>>,>>>>,>,&O@+@@>>>>>>>;",
"Oo+++OOoOOO++@OOOOOOOOOOOOO@44>oOO@OOOO@O+OOOOooOO++@@@++++O+oO.",
"oooooooooooOoo.ooooooXXoXoX@13:Xooo XoooXooooooo.Xo.oXXoooooXooo",
"56554544454>:>57454555555556jju5456654556655545556556555556453:-",
"TQRRRRTRTTY539TTTTT!TRQQU!!TIITQWTTTRTQQQQRQRQRRQQQRQQQQTQQQ~m43",
"GGGIIIIUKKK416KKKIKGFGFFFFFFKKGGYKGKKGIGGGGGIGGIGFFFGGGGGAAGRz11",
"6799777779941479975zGFGFKFKFGKv6977799777997776jHGIFGIGKKKm69541",
"1131132211144412321uTIGIKKKKKTz122222122112113,rUGGGUIKKKUn11241",
"2444444424444444441sIFKFKKKKKUx2334444333444433tUGGIGIGKKIm24422",
"24>@@>41442@@$@@-4245555555545524;@@#@@1334343345554455555534>@@",
"34>oo>54444@oOOo-5422442423442435;oOoo+1442444444145441523335>oo",
"13>oo:21111@O@@o=3111211111111113-o@@@@1114331111111111111114;Oo",
"@@@O@+@@O@+o@@@O@@@@@@@O@@@@@O@@@@@@O@@@@@25,@@@++O++@++@@@@@@@o",
"XoooX.oooooOoooooXoXoXooo oOOooooXXXo.ooXo14>.oooO ooOoooooXo.o ",
"=:>;=>;;>=,>;>>-;>;>->*&*=>-;>:;-:=>;-:>=,9q4;>-=;=,::=:,==>=>>-",
"~T!T!!RRRTTRTR!!R!RRT!q45K!!TRR!RQQQ!RRQTQUTRTRTTTTTTT!!T!TT~RRT",
"TUIFAITUIIIITTKFKKFIIT714ATITIKFKGFFKKKKFKKFGUIUKUIITUKTTKKKKALK",
"puxGIvppsssppjKFFKIzip524tpsprkKKGKIzpsAGKKKVppspgppfpppppxKLmpy",
"11rKKe13233315GGFFIr12222212117TFGKT514BLAKKx11111111222214KIk11",
"33tTTu34443436UUTIRs1244555443wRITUT914ATTTTm14455555444425Y!k21",
"416ee634444434q979q524-&**&*235w9q994427999q745>&&&*&144444qq641",
"4441134433344322221244#oooo#4441121142441441225=o+ooo,4422221242",
"4354444333333433444444&o@@O#4444444441544444545;o+@@@16433344441",
"$@@##@@@<52%###%@$$$$$+++++@$@##+>44=+&+@&$&@&$@O@@++@+$####@%#@",
"oooooooo,52OoOooOooo+ooOOOoOoOOOo=44*oOOoooooooo++OOooooOoOooooo",
"&&$@&&@&153%#%%#$$$$$$######@@$&+>55=+&&+&$$@%&%+&&+@&$&%###$##@",
"AAAFAFFFFFFFFFAFDJAJAAFFAJKx219LGFFKFVFFAGAAAAAGKK913nKAAAAAGAGV",
"ITTGIIIIIGIIIIIFYTYYYYIIYTWK24wRTIIIIIKIKKTUUTTUKTe14mTKIUKUUUTK",
"zxMUIGIIIIIIKKKFAjnkvxvvxxvj447vvzvjAIKIKGnxxnxzvm834vTKKIFznznl",
"21qTGIGIGGGGFKKIf1422222222142332221kIFFKA31313311143vLKKUn13311",
"31tQIUUUUUUUITURk1444545445444432241vRRTTK43455455443mTTLTm44453",
"417ksssgsgsgssskw15<;>->>;;>::,44241qgggjf431;;>;;144rjpfjr131==",
"4431111111111111114-.ooooOoooX&4244421221144>ooooo=6441112115-Oo",
"4444444454434544546=o@@++@@+@O=4444444544444,o@+@o>5444444447>+o"
};